<svg width="7" height="13" viewBox="0 0 7 13" fill="none" xmlns="http://www.w3.org/2000/svg">
<path d="M4.08332 12.4091L4.08332 2.0175L6.00419 3.96328C6.23197 4.19405 6.60133 4.19405 6.82914 3.96328C7.05695 3.73255 7.05695 3.35839 6.82914 3.12762L3.91248 0.173077C3.68471 -0.0576925 3.31535 -0.0576925 3.08754 0.173077L0.170877 3.12762C0.0569719 3.243 3.2847e-07 3.39424 3.2186e-07 3.54547C3.15249e-07 3.6967 0.0569719 3.84793 0.170877 3.96328C0.398649 4.19405 0.768014 4.19405 0.995825 3.96328L2.91666 2.0175L2.91666 12.4091C2.91666 12.7354 3.17784 13 3.49999 13C3.82214 13 4.08332 12.7354 4.08332 12.4091Z" fill="#007F5F"/>
</svg>
