<svg width="22" height="13" viewBox="0 0 22 13" fill="none" xmlns="http://www.w3.org/2000/svg">
<path d="M16.6666 1.24898C16.2869 0.885756 15.6711 0.885756 15.2913 1.24898C14.9115 1.61221 14.9115 2.20123 15.2913 2.56452L18.4937 5.62772L1.39122 5.62772C0.85413 5.62772 0.418701 6.04421 0.418701 6.55795C0.418701 7.07169 0.85413 7.48818 1.39122 7.48818L18.4937 7.48818L15.2913 10.5514C14.9115 10.9146 14.9115 11.5036 15.2913 11.8669C15.4812 12.0485 15.7301 12.1394 15.979 12.1394C16.2279 12.1394 16.4768 12.0485 16.6666 11.8669L21.5292 7.21569C21.909 6.85246 21.909 6.26344 21.5292 5.90015L16.6666 1.24898Z" fill="#006197"/>
</svg>
