<svg width="7" height="13" viewBox="0 0 7 13" fill="none" xmlns="http://www.w3.org/2000/svg">
<path d="M6.82917 9.87237C7.05694 9.64164 7.05694 9.26748 6.82917 9.03671C6.6014 8.80594 6.23203 8.80594 6.00422 9.03671L4.08334 10.9825L4.08334 0.59091C4.08334 0.26457 3.82216 -1.38908e-07 3.50001 -1.5299e-07C3.17785 -1.67072e-07 2.91667 0.26457 2.91667 0.59091L2.91667 10.9825L0.99579 9.03675C0.768017 8.80598 0.398651 8.80598 0.170839 9.03675C0.0569726 9.15209 7.01758e-08 9.30333 6.35652e-08 9.45456C5.69546e-08 9.60579 0.056973 9.75703 0.170878 9.87237L3.08755 12.8269C3.31532 13.0577 3.68469 13.0577 3.9125 12.8269L6.82917 9.87237Z" fill="#D90429"/>
</svg>
