<svg width="22" height="13" viewBox="0 0 22 13" fill="none" xmlns="http://www.w3.org/2000/svg">
<path d="M21.0276 5.62774L3.92513 5.62774L7.12749 2.56456C7.50729 2.20133 7.50729 1.61231 7.12749 1.24903C6.74775 0.885741 6.13196 0.885741 5.75216 1.24903L0.889586 5.90018C0.509787 6.2634 0.509787 6.85242 0.889586 7.21571L5.75216 11.8669C5.94206 12.0485 6.19096 12.1394 6.43986 12.1394C6.68875 12.1394 6.93765 12.0485 7.12749 11.8669C7.50729 11.5036 7.50729 10.9146 7.12749 10.5513L3.92513 7.4882L21.0276 7.4882C21.5647 7.4882 22.0001 7.07171 22.0001 6.55797C22.0001 6.04424 21.5647 5.62774 21.0276 5.62774Z" fill="#006197"/>
</svg>
