<svg width="31" height="16" viewBox="0 0 31 16" fill="none" xmlns="http://www.w3.org/2000/svg">
<path d="M23.7874 10.6228C23.7851 10.3093 23.5365 10.0641 23.2212 10.0635C22.9122 10.0635 22.6504 10.3162 22.6446 10.62C22.6389 10.9249 22.93 11.2132 23.2338 11.204C23.5353 11.1948 23.7897 10.9278 23.7874 10.6223V10.6228Z" fill="white" stroke="#E8F2F6" stroke-width="0.186429"/>
<path d="M30.2602 11.906C30.1454 12.0565 30.0454 12.2219 29.9139 12.3551C29.1352 13.1419 28.3502 13.9223 27.5657 14.7033C27.1602 15.1065 26.8955 15.1076 26.4929 14.7074C25.8296 14.0481 25.1692 13.3859 24.5065 12.7261C24.3382 12.5584 24.2067 12.3746 24.2607 12.1197C24.3595 11.6516 24.8959 11.5057 25.2657 11.8612C25.782 12.3568 26.2827 12.8685 26.7864 13.3768C26.8599 13.4508 26.9116 13.5462 26.9598 13.6128C27.6053 12.9696 28.2049 12.3718 28.7774 11.8009C25.9405 8.96915 23.084 6.11842 20.2264 3.26596C20.2264 3.32799 20.2264 3.4193 20.2264 3.51003C20.2264 4.52077 20.2327 5.5315 20.2212 6.54166C20.2189 6.75242 20.2861 6.89427 20.4331 7.03784C21.0074 7.59662 21.5696 8.1686 22.1387 8.73312C22.3466 8.93986 22.4397 9.17589 22.3127 9.45499C22.1399 9.83402 21.6896 9.89546 21.3571 9.57559C20.896 9.13282 20.4481 8.67684 19.9978 8.22258C19.9243 8.1485 19.8703 8.05604 19.8227 7.99287C18.7901 8.49881 17.7283 8.73484 16.6773 8.87554C15.3306 9.05587 13.9598 9.02026 12.682 8.1106C12.6275 8.20535 12.5913 8.31389 12.5184 8.38683C11.1573 9.75189 9.79169 11.1124 8.42662 12.4734C7.98557 12.9133 7.72657 12.9162 7.29299 12.4837C6.50221 11.6958 5.71142 10.9073 4.92236 10.1171C4.52036 9.71457 4.51864 9.44408 4.91662 9.04438C5.37374 8.58496 5.83374 8.12898 6.33509 7.62935C6.19497 7.62189 6.10653 7.61327 6.01809 7.61327C4.87182 7.61212 3.72556 7.61442 2.57929 7.61212C1.5542 7.61097 0.917322 6.97639 0.915599 5.95704C0.913876 4.99397 0.913876 4.03091 0.915599 3.06841C0.917896 2.0795 1.54903 1.43688 2.54081 1.43515C5.41567 1.42999 8.29109 1.4363 11.1659 1.42597C11.3308 1.42597 11.522 1.35935 11.6547 1.26115C12.6269 0.542721 13.7094 0.19241 14.9189 0.109714C16.3707 0.0103629 17.7409 0.350912 19.1048 0.746591C19.4103 0.835031 19.6866 1.05843 19.9461 1.25828C20.0908 1.36969 20.2149 1.4363 20.3998 1.43573C23.0168 1.43056 25.6344 1.45698 28.2508 1.41965C29.2196 1.40587 29.9231 1.68267 30.2602 2.6377V6.4136C30.2418 6.43255 30.2149 6.44805 30.2062 6.47103C29.9013 7.27961 29.4258 7.61155 28.5655 7.6127C27.908 7.61384 27.2504 7.6127 26.5929 7.61385C26.5251 7.61385 26.4573 7.6282 26.3522 7.63969C27.5238 8.80892 28.6643 9.9437 29.7996 11.0831C29.9656 11.2496 30.1069 11.4403 30.2596 11.6195V11.9054L30.2602 11.906ZM11.3836 2.59405C11.2831 2.58544 11.2486 2.5797 11.2142 2.5797C8.32268 2.5797 5.43175 2.57797 2.54024 2.58085C2.20716 2.58085 2.06301 2.7359 2.06129 3.08449C2.05727 4.03665 2.05784 4.98938 2.06129 5.94154C2.06244 6.31769 2.20543 6.46528 2.58044 6.46586C4.16431 6.4693 5.74818 6.4693 7.33262 6.46299C7.42508 6.46299 7.54166 6.41934 7.60655 6.35502C8.85331 5.12147 10.0938 3.88159 11.3847 2.59405H11.3836ZM7.84488 11.3616C9.93067 9.27983 12.0153 7.19864 14.0741 5.14386C13.4826 4.55867 12.8762 3.95797 12.2881 3.37622C10.227 5.4333 8.14121 7.51507 6.06633 9.58593C6.65267 10.1711 7.25222 10.7695 7.84488 11.361V11.3616ZM21.3072 2.57855C21.3623 2.64746 21.3813 2.67618 21.4054 2.69972C22.6263 3.91892 23.8466 5.13984 25.0739 6.3533C25.1434 6.42221 25.2726 6.46184 25.3748 6.46241C26.4344 6.47045 27.4933 6.46873 28.5529 6.46643C28.9801 6.46528 29.114 6.3286 29.1145 5.89732C29.1163 4.99225 29.1157 4.08718 29.1145 3.18212C29.1145 2.69857 28.9922 2.57855 28.5035 2.57855C26.2127 2.57855 23.9225 2.57855 21.6316 2.57855C21.5403 2.57855 21.449 2.57855 21.3066 2.57855H21.3072ZM16.1593 4.52651C16.1593 5.45053 16.1582 6.37455 16.1593 7.29856C16.1599 7.72755 16.2862 7.82748 16.7032 7.72411C17.3774 7.55757 18.0487 7.37954 18.7246 7.21989C18.9687 7.16246 19.0784 7.03784 19.0778 6.78516C19.0732 5.27997 19.0732 3.77478 19.0778 2.27016C19.0784 2.00771 18.9721 1.87965 18.7097 1.81992C18.0418 1.66831 17.3808 1.48856 16.7158 1.32317C16.2805 1.21463 16.1599 1.30881 16.1593 1.75388C16.1582 2.6779 16.1593 3.60192 16.1593 4.52594V4.52651ZM15.0027 4.22731V1.27952C14.1557 1.28125 13.2575 1.55518 12.6499 2.00656C13.4401 2.75198 14.2251 3.49338 15.0027 4.22731ZM15.001 6.02194C14.5617 6.46069 14.1103 6.91207 13.6112 7.41055C14.0643 7.54263 14.5186 7.67529 15.001 7.81599V6.02194Z" fill="#006197" stroke="#E8F2F6" stroke-width="0.186429"/>
<path d="M23.7874 10.6232C23.7897 10.9282 23.5353 11.1958 23.2338 11.205C22.9306 11.2142 22.6394 10.9253 22.6446 10.6209C22.6503 10.3166 22.9122 10.0639 23.2212 10.0645C23.5365 10.0645 23.7845 10.3102 23.7874 10.6238V10.6232Z" fill="#006197" stroke="#E8F2F6" stroke-width="0.186429"/>
</svg>
