<svg width="21" height="25" viewBox="0 0 21 25" fill="none" xmlns="http://www.w3.org/2000/svg">
<path d="M3.84229 24.9956C3.69405 24.966 3.54581 24.9331 3.39756 24.9058C2.473 24.7739 1.62565 24.3152 1.0079 23.612C0.390142 22.9089 0.0425234 22.0076 0.0275601 21.0701C-0.0960226 19.1485 0.197017 17.2227 0.886469 15.4257C1.29428 14.2463 2.11188 13.254 3.18934 12.6308C3.88352 12.254 4.66373 12.066 5.45261 12.0854C5.71646 12.1132 5.97044 12.2014 6.19496 12.3433C6.56274 12.5444 6.90449 12.7978 7.26209 13.0171C8.18003 13.6487 9.26686 13.9868 10.3797 13.9868C11.4926 13.9868 12.5794 13.6487 13.4974 13.0171C13.7859 12.8375 14.0802 12.6637 14.3518 12.4603C14.586 12.2936 14.8523 12.1778 15.1337 12.1203C15.4151 12.0628 15.7053 12.0648 15.9858 12.1263C16.7352 12.2275 17.4481 12.5124 18.0617 12.9559C18.6753 13.3993 19.1707 13.9877 19.5041 14.669C20.1507 15.9291 20.5356 17.3078 20.6357 18.7217C20.7072 19.4496 20.7389 20.1808 20.7308 20.9122C20.7459 21.9284 20.3746 22.9123 19.6926 23.6633C19.0106 24.4143 18.069 24.8761 17.0598 24.9547C17.0061 24.9651 16.9535 24.9803 16.9025 25.0001H3.84229V24.9956ZM10.3786 23.5311C12.4325 23.5311 14.4876 23.5492 16.5415 23.5311C16.9121 23.554 17.2833 23.4964 17.6298 23.3623C17.9763 23.2282 18.2899 23.0207 18.5494 22.754C18.8088 22.4873 19.008 22.1675 19.1333 21.8166C19.2586 21.4656 19.3071 21.0917 19.2755 20.7202C19.2759 20.0614 19.2415 19.403 19.1725 18.7478C19.0809 17.5864 18.7653 16.4539 18.2434 15.4132C18.0071 14.888 17.6316 14.4381 17.1578 14.1126C16.684 13.7872 16.1302 13.5989 15.557 13.5681C15.4468 13.5628 15.3374 13.5888 15.2412 13.6431C14.8746 13.8703 14.5192 14.1078 14.156 14.335C13.168 14.9653 12.0413 15.343 10.8743 15.4348C9.3127 15.5397 7.76056 15.1218 6.46089 14.2464C6.13951 14.0419 5.82265 13.8317 5.50013 13.6306C5.43368 13.5835 5.35509 13.5566 5.27381 13.5533C4.50448 13.5625 3.76865 13.8708 3.22103 14.4134C2.76597 14.8905 2.41453 15.4573 2.18898 16.0779C1.62799 17.6515 1.38486 19.3216 1.47379 20.9906C1.46872 21.4212 1.57789 21.8453 1.79009 22.2195C2.00229 22.5937 2.30987 22.9044 2.68124 23.1198C3.22193 23.4201 3.83497 23.5641 4.45224 23.5356H10.3786V23.5311Z" fill="#061229"/>
<path d="M10.7826 0C11.1052 0.0647609 11.4311 0.120433 11.7513 0.196555C12.8727 0.50191 13.8825 1.12593 14.6592 1.9936C15.4359 2.86128 15.9465 3.93569 16.1296 5.08771C16.3709 6.53026 16.0657 8.01124 15.2741 9.23922C14.777 10.0473 14.0925 10.7225 13.279 11.2072C12.4655 11.6919 11.5473 11.9718 10.6027 12.0228C9.38422 12.1007 8.17106 11.8038 7.12496 11.1717C6.07887 10.5395 5.24957 9.60227 4.74764 8.48482C4.29404 7.44474 4.13846 6.29822 4.29839 5.17422C4.45833 4.05022 4.92742 2.9933 5.65294 2.12234C6.5082 1.10223 7.67908 0.39906 8.97881 0.124977C9.20514 0.0772586 9.43826 0.0409016 9.66798 0H10.7849H10.7826ZM14.7433 6.05571C14.7467 5.15756 14.4849 4.27856 13.991 3.52969C13.4971 2.78083 12.7932 2.19569 11.9683 1.84816C11.1434 1.50063 10.2345 1.4063 9.35619 1.57707C8.47793 1.74784 7.66976 2.17606 7.03373 2.80766C6.3977 3.43926 5.96233 4.24591 5.78261 5.12575C5.60288 6.0056 5.68685 6.91918 6.02392 7.75115C6.36099 8.58311 6.93603 9.29615 7.67645 9.80021C8.41686 10.3043 9.28944 10.5768 10.184 10.5833C10.7801 10.5882 11.3714 10.4749 11.9238 10.2498C12.4762 10.0247 12.9788 9.69224 13.4029 9.27154C13.827 8.85085 14.1641 8.35019 14.3949 7.79833C14.6257 7.24646 14.7457 6.65425 14.7479 6.05571H14.7433Z" fill="#061229"/>
</svg>
