<svg width="27" height="27" viewBox="0 0 27 27" fill="none" xmlns="http://www.w3.org/2000/svg">
<path d="M19.9666 25.8961C19.588 25.8001 19.201 25.7293 18.8318 25.6047C16.5207 24.8249 15.0326 22.5447 15.234 20.1135C15.4404 17.6284 17.4066 15.5742 19.8666 15.2743C22.8241 14.9137 25.4351 16.9169 25.8473 19.8611C25.8528 19.8987 25.878 19.9334 25.8938 19.9695V21.1549C25.878 21.191 25.8528 21.2257 25.8473 21.2633C25.5345 23.4926 23.9549 25.2341 21.768 25.7566C21.5631 25.8055 21.3572 25.8496 21.1514 25.8961H19.9656H19.9666ZM20.556 24.7112C22.83 24.7131 24.7071 22.839 24.7091 20.5647C24.7111 18.2898 22.8379 16.4142 20.5624 16.4123C18.2875 16.4103 16.4118 18.2829 16.4094 20.5578C16.4074 22.8316 18.2815 24.7087 20.5555 24.7107L20.556 24.7112Z" fill="#061229" stroke="#333333" stroke-width="0.226327"/>
<path d="M2.18371 8.52611C2.18371 8.63347 2.18371 8.72302 2.18371 8.81257C2.18371 13.1663 2.18371 17.5201 2.18371 21.8739C2.18371 22.7254 2.58704 23.1301 3.43528 23.1301C6.99102 23.1301 10.5473 23.1301 14.103 23.1301C14.5291 23.1301 14.7869 23.3636 14.7795 23.7371C14.7736 24.0404 14.5459 24.2858 14.2441 24.311C14.1866 24.316 14.1287 24.3135 14.0713 24.3135C10.4745 24.3135 6.8772 24.3145 3.28038 24.3135C2.13521 24.3135 1.25135 23.5828 1.03211 22.4562C1.00589 22.3202 1.00094 22.1787 1.00094 22.0396C0.999947 16.311 0.999452 10.5828 1.00094 4.85459C1.00094 3.5539 1.97685 2.58766 3.28434 2.5842C3.56395 2.5837 3.84306 2.5842 4.16127 2.5842C4.16127 2.27498 4.16028 1.97467 4.16127 1.67386C4.16276 1.26471 4.39387 1.00398 4.75266 1.00398C5.11244 1.00398 5.34256 1.26322 5.34454 1.67288C5.34603 1.96725 5.34454 2.26162 5.34454 2.56985H12.0646C12.0646 2.24431 12.0591 1.91085 12.0661 1.57788C12.072 1.28895 12.2823 1.05147 12.554 1.00794C12.8445 0.961429 13.1221 1.12272 13.2142 1.40324C13.2414 1.48685 13.2454 1.58036 13.2464 1.66941C13.2503 1.96428 13.2479 2.25915 13.2479 2.56837H19.9674C19.9674 2.2918 19.9674 2.02266 19.9674 1.75352C19.9674 1.27114 20.1738 1.00695 20.5528 1.00348C20.9428 1.00002 21.1507 1.26471 21.1512 1.7649C21.1512 2.02711 21.1512 2.28933 21.1512 2.58321C21.4516 2.58321 21.7366 2.58272 22.0212 2.58321C23.3435 2.58618 24.3115 3.54995 24.312 4.87092C24.3135 7.95715 24.3115 11.0434 24.314 14.1296C24.314 14.4037 24.2165 14.6125 23.9656 14.7283C23.7453 14.8302 23.5053 14.8193 23.3499 14.6377C23.2331 14.5012 23.1396 14.2949 23.1376 14.1182C23.1223 12.349 23.1282 10.5793 23.1282 8.8101C23.1282 8.72055 23.1282 8.631 23.1282 8.52463H2.18371V8.52611ZM12.0651 3.78545H5.34504C5.34504 4.09813 5.34652 4.39349 5.34504 4.68885C5.34256 5.09356 5.10452 5.3528 4.74276 5.34786C4.39436 5.34291 4.16424 5.08465 4.16177 4.69232C4.16028 4.39052 4.16177 4.08922 4.16177 3.76862C3.83861 3.76862 3.54415 3.76219 3.24969 3.77011C2.64 3.78594 2.19856 4.22874 2.18619 4.83975C2.17827 5.23456 2.1847 5.62986 2.18421 6.02467C2.18421 6.45015 2.18421 6.87613 2.18421 7.31299H23.1223C23.1223 6.43828 23.1436 5.57544 23.1134 4.71508C23.098 4.2891 22.8407 3.94228 22.4225 3.8463C22.0167 3.75279 21.5852 3.77308 21.1526 3.7429C21.1526 4.10357 21.1541 4.39943 21.1526 4.69529C21.1502 5.08663 20.9191 5.34439 20.5697 5.34885C20.2089 5.3533 19.9718 5.09257 19.9694 4.68737C19.9679 4.38607 19.9694 4.08477 19.9694 3.78742H13.2498C13.2498 3.96158 13.2498 4.11742 13.2498 4.27277C13.2498 4.42911 13.2523 4.58545 13.2488 4.74179C13.2409 5.09306 13.0009 5.3434 12.6688 5.34835C12.3259 5.35379 12.072 5.10048 12.0666 4.73932C12.0621 4.42763 12.0656 4.11544 12.0656 3.78594L12.0651 3.78545Z" fill="#061229" stroke="#333333" stroke-width="0.226327"/>
<path d="M4.16139 12.6345C4.16139 12.1328 4.15941 11.6312 4.16189 11.13C4.16387 10.7228 4.39696 10.4893 4.80474 10.4888C5.8247 10.4868 6.84416 10.4868 7.86412 10.4888C8.27141 10.4898 8.5045 10.7233 8.50549 11.131C8.50747 12.1506 8.50747 13.1703 8.50549 14.19C8.5045 14.5972 8.27042 14.8307 7.86313 14.8317C6.84317 14.8337 5.82371 14.8337 4.80375 14.8317C4.39894 14.8307 4.16387 14.5942 4.16189 14.189C4.15941 13.671 4.16139 13.153 4.16139 12.635V12.6345ZM5.35605 13.6309H7.30292V11.6846H5.35605V13.6309Z" fill="#061229" stroke="#333333" stroke-width="0.226327"/>
<path d="M14.8298 12.6725C14.8298 13.1821 14.8323 13.6922 14.8289 14.2018C14.8264 14.5911 14.5883 14.8291 14.1979 14.8301C13.17 14.8326 12.1421 14.8326 11.1138 14.8301C10.7248 14.8291 10.4862 14.5892 10.4857 14.1988C10.4833 13.1707 10.4833 12.1431 10.4857 11.115C10.4867 10.7262 10.7263 10.4882 11.1172 10.4872C12.1451 10.4847 13.173 10.4847 14.2013 10.4872C14.5913 10.4882 14.8269 10.7262 14.8293 11.118C14.8323 11.636 14.8303 12.154 14.8303 12.672L14.8298 12.6725ZM11.6839 11.6751V13.6303H13.6268V11.6751H11.6839Z" fill="#061229" stroke="#333333" stroke-width="0.226327"/>
<path d="M4.16139 18.9538C4.16139 18.4522 4.15941 17.9505 4.16189 17.4493C4.16387 17.0421 4.39696 16.8091 4.80474 16.8081C5.8247 16.8061 6.84416 16.8061 7.86412 16.8081C8.27141 16.8091 8.5045 17.0426 8.50549 17.4503C8.50747 18.47 8.50747 19.4897 8.50549 20.5093C8.5045 20.9165 8.27042 21.15 7.86313 21.151C6.84317 21.153 5.82371 21.153 4.80375 21.151C4.39943 21.15 4.16387 20.913 4.16189 20.5083C4.15941 19.9903 4.16139 19.4723 4.16139 18.9543V18.9538ZM7.3049 19.9572V18.0109H5.35852V19.9572H7.3049Z" fill="#061229" stroke="#333333" stroke-width="0.226327"/>
<path d="M21.1522 19.9695C21.4783 19.9695 21.7802 19.968 22.0825 19.9695C22.472 19.9719 22.7299 20.2055 22.7323 20.5553C22.7348 20.907 22.478 21.1499 22.0929 21.1519C21.5911 21.1544 21.0888 21.1554 20.587 21.1519C20.2124 21.1489 19.9714 20.9085 19.9699 20.534C19.9664 19.7607 19.9664 18.9869 19.9699 18.2136C19.9714 17.8505 20.2238 17.5967 20.5657 17.5991C20.9077 17.6016 21.1492 17.8554 21.1512 18.224C21.1546 18.7979 21.1522 19.3713 21.1522 19.9695Z" fill="#061229" stroke="#333333" stroke-width="0.226327"/>
</svg>
