<svg width="22" height="25" viewBox="0 0 22 25" fill="none" xmlns="http://www.w3.org/2000/svg">
<path d="M10.3436 24.6506C10.094 24.5993 9.84729 24.534 9.60459 24.4548C9.01662 24.2516 8.49323 23.8863 8.09068 23.3981C7.68813 22.9099 7.42163 22.3173 7.31983 21.684C7.30738 21.6219 7.2938 21.5598 7.27456 21.466H7.02787C5.55675 21.466 4.08562 21.4777 2.6145 21.466C1.92118 21.4476 1.26165 21.1519 0.774254 20.6408C0.286858 20.1298 0.00945861 19.4431 0.00023744 18.7248C-0.00898373 18.0065 0.25069 17.3125 0.724794 16.7882C1.1989 16.2639 1.8506 15.9501 2.54321 15.9126C3.0117 15.8634 3.04339 15.8306 3.04339 15.3383C3.04339 13.8064 3.01284 12.2721 3.04905 10.7413C3.02408 9.18504 3.45243 7.65706 4.27823 6.35661C5.10403 5.05616 6.28897 4.0436 7.67856 3.45093C7.8241 3.41 7.94947 3.31387 8.02976 3.18164C8.11005 3.0494 8.1394 2.89073 8.11197 2.73713C8.10417 2.37729 8.16651 2.01952 8.29526 1.68521C8.42401 1.35091 8.61652 1.04692 8.86129 0.791431C9.10606 0.535944 9.39805 0.334201 9.71981 0.198267C10.0416 0.062333 10.3865 -0.00500163 10.734 0.000289285C11.0817 0.00221508 11.4255 0.075872 11.7454 0.216959C12.0653 0.358046 12.3549 0.563734 12.5972 0.822014C12.8395 1.08029 13.0297 1.38599 13.1566 1.72124C13.2836 2.0565 13.3448 2.4146 13.3367 2.77463C13.3367 2.927 13.3163 3.07703 13.3039 3.25285C13.4171 3.30325 13.5302 3.35482 13.649 3.41108C14.9388 3.98121 16.0557 4.90212 16.8813 6.07623C17.7068 7.25033 18.2104 8.63388 18.3385 10.0803C18.3922 10.7355 18.4088 11.3934 18.3883 12.0506C18.3951 13.1734 18.3883 14.2963 18.3883 15.4203C18.3883 15.8106 18.4506 15.8798 18.8229 15.9114C19.4393 15.9362 20.0299 16.1745 20.5 16.5883C20.9701 17.0021 21.2925 17.5674 21.4154 18.1935C21.4863 18.5913 21.4725 19.0003 21.3749 19.3919C21.2773 19.7836 21.0983 20.1484 20.8505 20.461C20.6026 20.7735 20.2918 21.0262 19.9398 21.2014C19.5878 21.3767 19.2032 21.4701 18.8127 21.4754C17.3484 21.4894 15.8852 21.4754 14.4208 21.4754H14.2284C14.0782 21.9471 13.8986 22.4083 13.6909 22.8561C13.4444 23.3227 13.0967 23.7237 12.6751 24.0274C12.2534 24.3311 11.7695 24.5291 11.2613 24.606C11.2179 24.6176 11.1755 24.6329 11.1346 24.6517H10.3424L10.3436 24.6506ZM10.691 19.8825H17.268C17.7716 19.8825 18.2752 19.8825 18.7787 19.8825C19.0249 19.884 19.265 19.803 19.463 19.6515C19.6611 19.5 19.8065 19.2862 19.8776 19.0421C19.9283 18.8579 19.9363 18.6639 19.9009 18.4759C19.8655 18.2879 19.7877 18.1112 19.6739 17.9603C19.56 17.8093 19.4133 17.6884 19.2458 17.6073C19.0782 17.5262 18.8945 17.4873 18.7097 17.4938C18.4526 17.4964 18.1978 17.4433 17.9617 17.3379C17.7255 17.2324 17.5134 17.0769 17.3388 16.8813C17.1642 16.6858 17.031 16.4546 16.9479 16.2026C16.8648 15.9506 16.8335 15.6833 16.8561 15.418C16.8561 13.9423 16.8561 12.4655 16.8561 10.9898C16.8624 10.1541 16.7181 9.32454 16.4306 8.54367C15.9425 7.1571 15.0019 5.9908 13.7715 5.24646C12.5411 4.50211 11.0982 4.22652 9.69237 4.46735C8.28655 4.70817 7.00618 5.45027 6.07268 6.56531C5.13917 7.68035 4.61123 9.09823 4.58015 10.5737C4.5643 12.2264 4.58015 13.879 4.57449 15.5329C4.58668 15.9826 4.44455 16.4223 4.17334 16.7738C3.90214 17.1253 3.51943 17.3659 3.09318 17.4527C2.88949 17.4961 2.67561 17.4867 2.47078 17.5254C2.28578 17.5544 2.1105 17.6301 1.96039 17.7457C1.81029 17.8614 1.68996 18.0136 1.61002 18.1888C1.53007 18.364 1.49297 18.5569 1.50198 18.7505C1.51098 18.9441 1.56582 19.1324 1.66167 19.2988C1.77539 19.4917 1.93818 19.6484 2.13221 19.7518C2.32623 19.8551 2.54399 19.9012 2.76161 19.8848C5.40209 19.8848 8.04256 19.8848 10.683 19.8848L10.691 19.8825ZM8.86224 21.4824C8.94685 21.927 9.17786 22.3274 9.51583 22.6152C9.85381 22.903 10.2778 23.0604 10.7153 23.0604C11.1528 23.0604 11.5768 22.903 11.9147 22.6152C12.2527 22.3274 12.4837 21.927 12.5683 21.4824H8.86224ZM11.7762 2.82269C11.8056 2.60764 11.771 2.38843 11.6769 2.1943C11.5829 2.00017 11.434 1.84034 11.25 1.73616C11.0574 1.62152 10.8354 1.57125 10.6142 1.59223C10.393 1.61321 10.1835 1.70441 10.0142 1.85337C9.87561 1.96465 9.77017 2.11426 9.71011 2.28494C9.65004 2.45562 9.63778 2.64042 9.67476 2.818L11.7762 2.82269Z" fill="#061229"/>
</svg>
