<svg width="24" height="24" viewBox="0 0 24 24" fill="none" xmlns="http://www.w3.org/2000/svg">
<path d="M3.84673 3.84678C5.20566 2.48752 6.93711 1.56183 8.82211 1.18678C10.7071 0.811737 12.661 1.00419 14.4366 1.73979C16.2122 2.47539 17.7299 3.72111 18.7976 5.31938C19.8652 6.91766 20.435 8.7967 20.4348 10.7189C20.4407 13.0671 19.5899 15.3367 18.0419 17.1023L23.4382 22.4992C23.4999 22.5609 23.5488 22.6341 23.5821 22.7146C23.6155 22.7952 23.6327 22.8815 23.6327 22.9687C23.6327 23.0559 23.6155 23.1422 23.5821 23.2228C23.5488 23.3033 23.4999 23.3765 23.4382 23.4382C23.3766 23.4998 23.3034 23.5487 23.2228 23.5821C23.1423 23.6155 23.056 23.6327 22.9688 23.6327C22.8816 23.6327 22.7953 23.6155 22.7147 23.5821C22.6342 23.5487 22.561 23.4998 22.4994 23.4382L17.1031 18.0413C15.6973 19.2673 13.9684 20.0627 12.1228 20.3326C10.2773 20.6026 8.39303 20.3355 6.6951 19.5634C4.99717 18.7914 3.55731 17.5468 2.54745 15.9785C1.53758 14.4102 1.0004 12.5843 1.00004 10.7189C0.996569 9.44204 1.24639 8.17721 1.73503 6.99761C2.22367 5.81801 2.94142 4.74706 3.84673 3.84678ZM4.78557 16.6508C5.95866 17.8229 7.45287 18.6209 9.07932 18.9438C10.7058 19.2668 12.3915 19.1002 13.9233 18.4652C15.4551 17.8302 16.7643 16.7553 17.6854 15.3763C18.6065 13.9973 19.0981 12.3761 19.0981 10.7177C19.0981 9.05931 18.6065 7.43815 17.6854 6.05914C16.7643 4.68012 15.4551 3.60518 13.9233 2.97017C12.3915 2.33516 10.7058 2.16861 9.07932 2.49156C7.45287 2.81451 5.95866 3.61247 4.78557 4.78457C3.21397 6.35932 2.33131 8.49335 2.33131 10.7183C2.33131 12.9432 3.21397 15.0761 4.78557 16.6508Z" fill="#061229" stroke="#333333" stroke-width="0.452653"/>
</svg>
