<svg width="26" height="24" viewBox="0 0 26 24" fill="none" xmlns="http://www.w3.org/2000/svg">
<path d="M25.3145 10.5546C25.0226 11.1207 24.6706 11.1993 24.1659 10.816C20.5553 8.07719 16.9457 5.33723 13.3373 2.5961C13.3128 2.57183 13.2839 2.55286 13.2522 2.54029C13.2205 2.52773 13.1867 2.52182 13.1528 2.52291C13.1189 2.524 13.0855 2.53207 13.0546 2.54665C13.0238 2.56122 12.996 2.58202 12.973 2.60782C9.3706 5.3427 5.76673 8.07758 2.16134 10.8125C1.73359 11.1371 1.36015 11.1231 1.12364 10.7761C0.887126 10.4292 0.993499 10.0787 1.4122 9.75876C5.15036 6.92229 8.88852 4.08739 12.6267 1.25405C13.0725 0.915316 13.2491 0.915316 13.6882 1.25405C17.4391 4.09833 21.1897 6.94417 24.94 9.79157C25.0781 9.92018 25.2036 10.0627 25.3145 10.217V10.5546Z" fill="#061229" stroke="#333333" stroke-width="0.33949"/>
<path d="M10.0002 22.1229V21.8252C10.0002 20.0553 9.99453 18.2843 10.0002 16.5144C9.98398 15.6647 10.2882 14.8419 10.8482 14.2206C11.4082 13.5994 12.1799 13.2287 12.9995 13.1872C13.8191 13.1457 14.622 13.4367 15.2378 13.9984C15.8536 14.5601 16.2339 15.3483 16.2977 16.1956C16.3215 16.5391 16.3147 16.8836 16.3158 17.2282C16.3158 18.7613 16.3158 20.2941 16.3158 21.8264V22.1311H21.3697V11.8284C21.3572 11.7366 21.3636 11.6431 21.3886 11.554C21.4136 11.465 21.4566 11.3824 21.5147 11.3118C21.5728 11.2413 21.6446 11.1843 21.7256 11.1446C21.8065 11.1049 21.8947 11.0835 21.9842 11.0818C22.136 11.0742 22.2851 11.1258 22.402 11.2265C22.5189 11.3272 22.5951 11.4696 22.6156 11.6256C22.6292 11.7313 22.6349 11.8379 22.6326 11.9445C22.6326 15.4928 22.6326 19.0411 22.6326 22.5894C22.6326 23.2305 22.4244 23.4462 21.8099 23.4462H15.8292C15.2781 23.4462 15.0552 23.2118 15.0552 22.6421C15.0552 20.5933 15.0552 18.5398 15.0552 16.4957C15.0552 15.975 14.8555 15.4756 14.5 15.1075C14.1445 14.7393 13.6624 14.5324 13.1597 14.5324C12.657 14.5324 12.1749 14.7393 11.8194 15.1075C11.4639 15.4756 11.2642 15.975 11.2642 16.4957C11.2586 18.5363 11.2642 20.5769 11.2642 22.6175C11.2684 22.7158 11.2646 22.8142 11.2529 22.9117C11.2265 23.0712 11.1432 23.2145 11.0195 23.3133C10.8959 23.4121 10.7408 23.4591 10.5852 23.445C9.51698 23.445 8.44872 23.445 7.38046 23.445H4.46085C3.90861 23.445 3.68568 23.2106 3.68568 22.6375C3.68568 19.3509 3.68568 16.0648 3.68568 12.779C3.68568 12.4274 3.67663 12.0757 3.69247 11.7241C3.69112 11.6375 3.70696 11.5516 3.73902 11.4716C3.77109 11.3916 3.81868 11.3193 3.87885 11.2592C3.93902 11.1991 4.01048 11.1524 4.0888 11.1221C4.16711 11.0918 4.25061 11.0785 4.33411 11.083C4.41741 11.084 4.49967 11.1023 4.576 11.1369C4.65234 11.1714 4.7212 11.2215 4.7785 11.2842C4.8358 11.3468 4.88038 11.4207 4.9096 11.5015C4.93881 11.5823 4.95207 11.6684 4.94858 11.7546C4.94858 11.8284 4.94858 11.9023 4.94858 11.9761V22.1253H10.0025L10.0002 22.1229Z" fill="#061229" stroke="#333333" stroke-width="0.33949"/>
</svg>
