<svg width="21" height="25" viewBox="0 0 21 25" fill="none" xmlns="http://www.w3.org/2000/svg">
<path d="M0.188829 21.9871C0.381558 22.1976 0.680484 22.2743 0.950823 22.1826L4.03098 21.1367L5.31869 24.1238C5.43198 24.3866 5.69028 24.5573 5.97645 24.5584H5.97942C6.26444 24.5584 6.52269 24.3902 6.63776 24.1292L9.0381 18.6845C9.41396 18.7307 9.79649 18.7549 10.1846 18.7549C10.5728 18.7549 10.9553 18.7307 11.3312 18.6845L13.7315 24.1292C13.8465 24.3902 14.1048 24.5585 14.3899 24.5584H14.3929C14.6791 24.5573 14.9373 24.3866 15.0506 24.1238L16.3384 21.1367L19.4185 22.1826C19.6886 22.2743 19.9878 22.1977 20.1805 21.9871C20.3733 21.7766 20.4234 21.472 20.3081 21.2108L17.6064 15.0869C18.8171 13.5101 19.5381 11.5385 19.5381 9.40141C19.5381 4.21744 15.3422 0 10.1847 0C5.0272 0 0.831243 4.21744 0.831243 9.40141C0.831243 11.5385 1.55222 13.5101 2.76299 15.0869L0.0612385 21.2108C-0.0539767 21.472 -0.0039478 21.7766 0.188829 21.9871ZM18.3306 20.2935L16.172 19.5605C15.8167 19.4398 15.4285 19.6125 15.2799 19.957L14.3825 22.0386L12.774 18.39C14.2005 17.9784 15.4876 17.2356 16.547 16.2508L18.3306 20.2935ZM2.27023 9.40141C2.27023 5.0109 5.82066 1.43899 10.1847 1.43899C14.5487 1.43899 18.0991 5.0109 18.0991 9.40141C18.0991 13.7654 14.5487 17.3159 10.1847 17.3159C5.82066 17.3159 2.27023 13.7654 2.27023 9.40141ZM3.82228 16.2508C4.88176 17.2356 6.16889 17.9785 7.59536 18.39L5.98681 22.0386L5.08946 19.9569C4.9409 19.6124 4.55262 19.4398 4.19743 19.5604L2.0388 20.2934L3.82228 16.2508Z" fill="#061229"/>
<path d="M7.35919 10.3194L6.93848 12.772C6.89219 13.042 7.00314 13.3148 7.22469 13.4758C7.44587 13.6365 7.73961 13.6582 7.98242 13.5305L10.1851 12.3725L12.3877 13.5305C12.6302 13.658 12.924 13.6367 13.1454 13.4758C13.367 13.3148 13.478 13.042 13.4317 12.772L13.011 10.3194L14.793 8.58238C14.9891 8.39123 15.0597 8.10531 14.975 7.84485C14.8903 7.58439 14.6652 7.39454 14.3942 7.35516L11.9316 6.99733L10.8303 4.76584C10.7091 4.52025 10.4589 4.36475 10.1851 4.36475C9.91124 4.36475 9.6611 4.52021 9.53989 4.76584L8.43858 6.99733L5.97594 7.35516C5.70493 7.39454 5.47973 7.58439 5.39511 7.84485C5.31045 8.10531 5.38106 8.39123 5.57715 8.58243L7.35919 10.3194ZM9.01984 8.36692C9.2542 8.33286 9.45676 8.1857 9.56157 7.9733L10.1851 6.70992L10.8086 7.9733C10.9134 8.18565 11.116 8.33286 11.3503 8.36692L12.7446 8.56953L11.7357 9.55293C11.5661 9.71822 11.4888 9.95638 11.5288 10.1898L11.767 11.5784L10.5199 10.9228C10.3103 10.8126 10.0599 10.8126 9.85028 10.9228L8.6032 11.5784L8.84135 10.1898C8.88136 9.95638 8.80399 9.71822 8.63443 9.55293L7.6255 8.56953L9.01984 8.36692Z" fill="#061229"/>
</svg>
