<svg width="21" height="21" viewBox="0 0 21 21" fill="none" xmlns="http://www.w3.org/2000/svg">
<path d="M20.4407 7.2056L13.7916 0.556573C13.4327 0.197678 12.954 0 12.4438 0C11.9335 0 11.4548 0.197596 11.0959 0.556491L0.556573 11.0959C0.197678 11.4548 0 11.9334 0 12.4437C0 12.954 0.197678 13.4326 0.556573 13.7915L1.37648 14.6114C1.37657 14.6115 1.37661 14.6115 1.37669 14.6116C1.37677 14.6117 1.37685 14.6118 1.37694 14.6119L6.8873 20.1222H6.12432C5.88276 20.1222 5.68688 20.3181 5.68688 20.5597C5.68688 20.8012 5.88276 20.9971 6.12432 20.9971H8.55177C8.55235 20.9971 8.55288 20.9971 8.55346 20.9971C8.55403 20.9971 8.55456 20.9971 8.55514 20.9971L14.8732 20.9972C15.1147 20.9972 15.3106 20.8013 15.3106 20.5597C15.3106 20.3181 15.1147 20.1223 14.8732 20.1223L10.2198 20.1222L20.4408 9.90123C21.1839 9.15801 21.1839 7.94873 20.4407 7.2056ZM19.8221 9.28261L9.28269 19.822C9.0894 20.0153 8.83103 20.1218 8.55506 20.1222H8.55173C8.27585 20.1218 8.01755 20.0153 7.82435 19.822L2.30467 14.3023L12.4262 4.18068C12.597 4.00986 12.597 3.73287 12.4262 3.56205C12.2554 3.39124 11.9784 3.39124 11.8076 3.56209L1.686 13.6837L1.17516 13.1729C0.981539 12.9793 0.874908 12.7203 0.874908 12.4437C0.874908 12.1671 0.981539 11.9082 1.1752 11.7145L11.7145 1.17516C11.9082 0.981539 12.1672 0.874908 12.4438 0.874908C12.7204 0.874908 12.9793 0.981539 13.173 1.1752L15.5395 3.54167L5.41785 13.6634C5.24703 13.8342 5.24703 14.1112 5.41785 14.2821C5.50327 14.3675 5.61524 14.4102 5.72716 14.4102C5.83908 14.4102 5.95104 14.3674 6.03647 14.282L16.1581 4.16034L19.8221 7.82418C20.2241 8.22626 20.2241 8.88053 19.8221 9.28261Z" fill="#3D86AF"/>
</svg>
