<svg width="23" height="23" viewBox="0 0 23 23" fill="none" xmlns="http://www.w3.org/2000/svg">
<path d="M20.6095 10.9651C20.1143 10.895 19.664 11.2386 19.595 11.7299L18.7602 17.6739C18.665 18.3503 18.3764 20.4077 14.9436 20.4077H8.05729C4.62454 20.4077 4.33524 18.3499 4.24036 17.6739L3.40554 11.7299C3.33654 11.2386 2.8848 10.895 2.39102 10.9651C1.89976 11.0341 1.55727 11.4884 1.62627 11.98L2.4611 17.9237C2.84886 20.6844 4.83621 22.2046 8.05729 22.2046H14.9436C18.1647 22.2046 20.1521 20.6844 20.5395 17.9237L21.3743 11.98C21.4433 11.4884 21.1008 11.0341 20.6095 10.9651Z" fill="#061229"/>
<path d="M21.9734 7.67541H19.2662C18.8953 3.8204 15.6398 0.795898 11.6895 0.795898H11.3111C7.36048 0.795898 4.10526 3.8204 3.73403 7.67541H1.02686C0.530559 7.67541 0.128418 8.07755 0.128418 8.57385C0.128418 9.07015 0.530559 9.47229 1.02686 9.47229H21.9734C22.4697 9.47229 22.8718 9.07015 22.8718 8.57385C22.8718 8.07755 22.4697 7.67541 21.9734 7.67541ZM11.3111 2.59277H11.6895C14.6479 2.59277 17.092 4.81407 17.4553 7.67541H5.54528C5.90825 4.81407 8.35271 2.59277 11.3111 2.59277Z" fill="#061229"/>
<path d="M7.49609 18.4371C7.06484 18.4371 6.68426 18.1259 6.61095 17.6864L5.9921 13.9733C5.91052 13.4838 6.24115 13.021 6.73062 12.9394C7.22081 12.8567 7.68296 13.1884 7.76454 13.6779L8.38338 17.391C8.46496 17.8804 8.13434 18.3433 7.64487 18.4249C7.59491 18.4335 7.54496 18.4371 7.49609 18.4371Z" fill="#061229"/>
<path d="M15.5042 18.4371C15.4549 18.4371 15.4057 18.4331 15.3554 18.4249C14.8659 18.3433 14.5353 17.8804 14.6169 17.391L15.2361 13.6779C15.318 13.1888 15.7794 12.8567 16.27 12.9394C16.7595 13.021 17.0901 13.4838 17.0085 13.9733L16.3893 17.6864C16.316 18.1259 15.9354 18.4371 15.5042 18.4371Z" fill="#061229"/>
<path d="M11.5002 18.4372C11.0039 18.4372 10.6018 18.035 10.6018 17.5387V13.8257C10.6018 13.3294 11.0039 12.9272 11.5002 12.9272C11.9965 12.9272 12.3987 13.3294 12.3987 13.8257V17.5387C12.3987 18.035 11.9965 18.4372 11.5002 18.4372Z" fill="#061229"/>
</svg>
