<svg width="26" height="26" viewBox="0 0 26 26" fill="none" xmlns="http://www.w3.org/2000/svg">
<path d="M11.0621 13.3287C10.8947 13.3287 10.7469 13.2192 10.6981 13.0589L9.54204 9.26145H6.07939C5.86913 9.26145 5.69873 9.09105 5.69873 8.88079C5.69873 8.67072 5.86913 8.50032 6.07939 8.50032H9.82392C9.99154 8.50032 10.1393 8.60982 10.1881 8.7701L11.0621 11.6414L12.3388 7.448C12.3874 7.28772 12.5354 7.17822 12.7028 7.17822C12.8702 7.17822 13.018 7.28772 13.0668 7.448L13.6192 9.26284H16.966C17.1761 9.26284 17.3465 9.43323 17.3465 9.6435C17.3465 9.85357 17.1761 10.024 16.966 10.024H13.3374C13.1699 10.024 13.022 9.91446 12.9734 9.75438L12.7028 8.86551L11.4261 13.0589C11.3775 13.2192 11.2297 13.3287 11.0621 13.3287Z" fill="white"/>
<path d="M25.1972 6.99726C25.0939 6.82576 24.8618 6.76525 24.6787 6.86195C24.4958 6.95847 24.4309 7.17564 24.5343 7.34696C24.9935 8.10908 25.2373 8.97459 25.2389 9.84994C25.2436 12.1836 23.8104 14.7798 20.9796 17.5662C18.6748 19.8348 16.0885 21.5673 15.0836 22.2067C14.9156 22.3138 14.6984 22.3138 14.5302 22.2067C13.6393 21.6398 11.4738 20.1932 9.37648 18.2708H12.927V19.7137C12.927 20.1718 13.3253 20.5445 13.8149 20.5445H14.6438C15.1336 20.5445 15.5319 20.1718 15.5319 19.7137V19.6837C15.5734 19.6892 15.6156 19.6931 15.6587 19.6931H16.4876C16.9772 19.6931 17.3755 19.3204 17.3755 18.8623V14.7985C17.3755 14.3405 16.9772 13.9677 16.4876 13.9677H15.6587C15.6156 13.9677 15.5734 13.9716 15.5319 13.9774V13.9471C15.5319 13.489 15.1336 13.1163 14.6438 13.1163H13.8149C13.3253 13.1163 12.927 13.489 12.927 13.9471V15.355H11.7273C11.517 15.355 11.3466 15.5144 11.3466 15.711C11.3466 15.9078 11.517 16.0672 11.7273 16.0672H12.927V17.5588H4.44871V16.0672H10.0061C10.2163 16.0672 10.3867 15.9078 10.3867 15.711C10.3867 15.5144 10.2163 15.355 10.0061 15.355H6.65353C5.13823 13.3936 4.37155 11.5422 4.37492 9.85012C4.38048 7.01545 6.84832 4.71219 9.87774 4.71219H9.88548C11.5593 4.71424 13.1212 5.41771 14.1707 6.642C14.3263 6.82353 14.5581 6.92747 14.8069 6.92747C15.0556 6.92747 15.2875 6.82335 15.443 6.642C16.4926 5.41771 18.0545 4.71442 19.7283 4.71219H19.736C21.1426 4.71219 22.4832 5.21335 23.5121 6.12396C23.6646 6.25909 23.9057 6.25277 24.0501 6.11004C24.1945 5.96712 24.1877 5.74178 24.035 5.60666C22.8642 4.5702 21.338 4 19.736 4C19.7333 4 19.7301 4 19.7271 4C17.8218 4.00241 16.0439 4.80296 14.8493 6.19653C14.8277 6.22159 14.7859 6.22159 14.7644 6.19653C13.5699 4.80314 11.792 4.0026 9.88667 4C9.88349 4 9.88092 4 9.87774 4C6.42958 4 3.62015 6.62214 3.6138 9.84882C3.61043 11.5707 4.31997 13.4206 5.724 15.355H4.44871V13.947C4.44871 13.4889 4.0504 13.1162 3.56084 13.1162H2.73167C2.24211 13.1162 1.84379 13.4889 1.84379 13.947V13.9772C1.80234 13.9716 1.76009 13.9677 1.71704 13.9677H0.887878C0.398315 13.9677 0 14.3405 0 14.7985V18.8621C0 19.3202 0.398315 19.6929 0.887878 19.6929H1.71704C1.76009 19.6929 1.80234 19.6891 1.84379 19.6835V19.7137C1.84379 20.1718 2.24211 20.5445 2.73167 20.5445H3.56084C4.0504 20.5445 4.44871 20.1718 4.44871 19.7137V18.2708H8.30273C10.6026 20.4859 13.1166 22.1685 14.1021 22.7956C14.3161 22.9319 14.5615 23 14.8067 23C15.0521 23 15.2974 22.9319 15.5115 22.7956C16.5368 22.1432 19.1757 20.3753 21.531 18.0568C24.5013 15.1332 26.0049 12.3715 26 9.84864C25.998 8.85134 25.7203 7.86537 25.1972 6.99726ZM15.6587 14.6799H16.4878C16.5577 14.6799 16.6146 14.7332 16.6146 14.7985V18.8621C16.6146 18.9277 16.5577 18.9809 16.4878 18.9809H15.6587C15.5888 18.9809 15.5319 18.9277 15.5319 18.8621V14.7985C15.5319 14.7332 15.5888 14.6799 15.6587 14.6799ZM13.6881 13.947C13.6881 13.8816 13.7449 13.8283 13.8149 13.8283H14.6438C14.7139 13.8283 14.7708 13.8816 14.7708 13.947V19.7137C14.7708 19.7791 14.7139 19.8323 14.6438 19.8323H13.8149C13.7449 19.8323 13.6881 19.7791 13.6881 19.7137V13.947ZM3.68759 19.7137C3.68759 19.7793 3.63066 19.8325 3.56084 19.8325H2.73167C2.66185 19.8325 2.60492 19.7793 2.60492 19.7137V16.8982C2.60492 16.7016 2.43452 16.5422 2.22426 16.5422C2.01419 16.5422 1.84379 16.7016 1.84379 16.8982V18.8621C1.84379 18.9277 1.78686 18.9809 1.71684 18.9809H0.887878C0.818054 18.9809 0.761123 18.9277 0.761123 18.8621V14.7985C0.761123 14.7332 0.818054 14.6799 0.887878 14.6799H1.71704C1.78686 14.6799 1.84379 14.7332 1.84379 14.7985V15.236C1.84379 15.4328 2.01419 15.592 2.22446 15.592C2.43452 15.592 2.60492 15.4328 2.60492 15.236V13.947C2.60492 13.8816 2.66185 13.8283 2.73187 13.8283H3.56084C3.63066 13.8283 3.68759 13.8816 3.68759 13.947V19.7137Z" fill="white"/>
</svg>
