<svg width="20" height="16" viewBox="0 0 20 16" fill="none" xmlns="http://www.w3.org/2000/svg">
<path d="M11.6208 2.975H11.6983L11.7176 2.89993C12.1321 1.28969 13.5939 0.1 15.3333 0.1C17.3952 0.1 19.0667 1.77147 19.0667 3.83333C19.0667 5.89516 17.3952 7.56667 15.3333 7.56667C13.5939 7.56667 12.1321 6.37695 11.7176 4.76674L11.6983 4.69167H11.6208H0.958333C0.484293 4.69167 0.1 4.30738 0.1 3.83333C0.1 3.35929 0.484294 2.975 0.958333 2.975H11.6208ZM7.44905 10.5666L7.46838 10.6417H7.5459H18.2083C18.6824 10.6417 19.0667 11.0259 19.0667 11.5C19.0667 11.9741 18.6824 12.3583 18.2083 12.3583H7.5459H7.46838L7.44905 12.4334C7.03461 14.0436 5.57278 15.2333 3.83333 15.2333C1.77147 15.2333 0.1 13.5618 0.1 11.5C0.1 9.43817 1.77147 7.76667 3.83333 7.76667C5.57278 7.76667 7.03461 8.95638 7.44905 10.5666ZM13.3167 3.83333C13.3167 4.94711 14.2195 5.85 15.3333 5.85C16.4471 5.85 17.35 4.94711 17.35 3.83333C17.35 2.71956 16.4471 1.81667 15.3333 1.81667C14.2195 1.81667 13.3167 2.71956 13.3167 3.83333ZM5.85 11.5C5.85 10.3862 4.94711 9.48333 3.83333 9.48333C2.71956 9.48333 1.81667 10.3862 1.81667 11.5C1.81667 12.6138 2.71956 13.5167 3.83333 13.5167C4.94711 13.5167 5.85 12.6138 5.85 11.5Z" fill="white" stroke="#3D86AF" stroke-width="0.2"/>
</svg>
