<svg width="23" height="19" viewBox="0 0 23 19" fill="none" xmlns="http://www.w3.org/2000/svg">
<path d="M19.3041 1.85469C17.8296 1.1648 16.253 0.66342 14.6046 0.37793C14.4022 0.743919 14.1657 1.23618 14.0027 1.62778C12.2505 1.36427 10.5144 1.36427 8.79441 1.62778C8.63138 1.23618 8.38951 0.743919 8.18527 0.37793C6.53518 0.66342 4.95675 1.16664 3.48224 1.85834C0.508145 6.35259 -0.298084 10.7352 0.105031 15.0556C2.07761 16.5287 3.98928 17.4235 5.86868 18.0091C6.33272 17.3705 6.74658 16.6916 7.1031 15.9761C6.42408 15.7181 5.77373 15.3996 5.15922 15.03C5.32224 14.9092 5.48171 14.783 5.63578 14.653C9.38384 16.4061 13.4562 16.4061 17.1595 14.653C17.3154 14.783 17.4748 14.9092 17.6361 15.03C17.0197 15.4015 16.3676 15.7199 15.6886 15.9779C16.0451 16.6916 16.4572 17.3723 16.923 18.0109C18.8042 17.4253 20.7177 16.5305 22.6902 15.0556C23.1632 10.0472 21.8822 5.7048 19.3041 1.85469ZM7.61373 12.3986C6.48859 12.3986 5.56589 11.3482 5.56589 10.0691C5.56589 8.79002 6.46889 7.73783 7.61373 7.73783C8.75859 7.73783 9.68126 8.78818 9.66156 10.0691C9.66334 11.3482 8.75859 12.3986 7.61373 12.3986ZM15.1816 12.3986C14.0564 12.3986 13.1337 11.3482 13.1337 10.0691C13.1337 8.79002 14.0367 7.73783 15.1816 7.73783C16.3264 7.73783 17.2491 8.78818 17.2294 10.0691C17.2294 11.3482 16.3264 12.3986 15.1816 12.3986Z" fill="#5865F2"/>
</svg>
