<svg width="44" height="44" viewBox="0 0 44 44" fill="none" xmlns="http://www.w3.org/2000/svg">
<rect width="44" height="44" rx="6" fill="#E8F2F6"/>
<path d="M10.6552 35.4369C10.4668 35.4029 10.2767 35.3766 10.0904 35.3333C8.85113 35.0434 8.00867 33.9994 8.00146 32.7483C7.9998 32.4655 7.99925 32.1832 8.00146 31.9005C8.00479 31.5793 8.14224 31.4324 8.46648 31.4166C8.67654 31.4061 8.88826 31.4144 9.14876 31.4144C9.14876 31.2774 9.14876 31.1645 9.14876 31.051C9.14876 26.321 9.15319 21.5909 9.14433 16.8609C9.14266 16.0449 9.422 15.3861 10.1547 14.9948C10.4579 14.8326 10.8309 14.7789 11.1795 14.7263C11.4578 14.6841 11.7482 14.7175 12.0552 14.7175C12.0126 14.5087 11.9477 14.3191 11.9394 14.1279C11.9089 13.4171 12.2077 12.8652 12.8428 12.5309C15.5232 11.1192 18.2046 9.71075 20.8939 8.31711C21.7208 7.88855 22.5771 7.90225 23.4168 8.31053C23.8048 8.49906 24.1844 8.70457 24.5636 8.90898C24.8168 9.04544 24.9005 9.28822 24.7819 9.50085C24.6689 9.70308 24.4289 9.7661 24.1833 9.64279C23.8303 9.46578 23.4833 9.2778 23.133 9.09531C22.4807 8.75608 21.83 8.75937 21.1782 9.10079C18.5444 10.4807 15.9106 11.8601 13.2757 13.2384C12.9642 13.4012 12.778 13.6494 12.7752 13.998C12.7724 14.3564 12.9537 14.6123 13.2785 14.7817C15.93 16.1671 18.5788 17.558 21.2303 18.9434C21.8228 19.253 22.4341 19.2673 23.0338 18.9697C23.7072 18.6349 24.369 18.2775 25.064 17.9153C24.5763 17.364 24.1057 16.8313 23.6335 16.2997C23.0682 15.6623 22.5017 15.0272 21.937 14.3893C21.6931 14.1136 21.6787 13.8741 21.8893 13.6966C22.0877 13.5289 22.3405 13.5853 22.5788 13.8506C22.6032 13.878 22.627 13.9059 22.6514 13.9333C23.6418 15.0502 24.6317 16.1671 25.6222 17.284C25.6826 17.3525 25.7458 17.4182 25.8295 17.5087C26.198 17.3179 26.5705 17.1272 26.9407 16.9332C28.282 16.2301 29.6205 15.5221 30.9657 14.8255C31.3127 14.6458 31.5471 14.4019 31.5454 14.0029C31.5438 13.6012 31.2955 13.3634 30.9529 13.1858C29.2265 12.2881 27.5038 11.3828 25.7785 10.4829C25.5867 10.3826 25.4348 10.2593 25.452 10.0248C25.4753 9.70746 25.7945 9.55894 26.116 9.7239C26.8836 10.1179 27.6463 10.5202 28.4106 10.9202C29.3212 11.397 30.2308 11.8755 31.1414 12.3523C32.2837 12.9502 32.5248 13.4505 32.2671 14.6973C32.6883 14.7186 33.114 14.7082 33.5291 14.7674C34.4414 14.8973 35.1154 15.6574 35.1641 16.5655C35.1713 16.702 35.173 16.839 35.173 16.9754C35.173 21.66 35.173 26.3445 35.173 31.0291V31.3793C35.5726 31.4878 36.0299 31.2626 36.322 31.6643V33.1412C36.3042 33.1818 36.2804 33.2207 36.2704 33.2629C36.0016 34.3956 35.2861 35.0873 34.1487 35.3591C33.9908 35.3969 33.8273 35.4128 33.6666 35.4385H10.6552V35.4369ZM11.9372 17.4895V29.4995C12.0491 29.4995 12.1478 29.4995 12.2465 29.4995C12.6982 29.4995 13.1499 29.4979 13.6016 29.5012C13.8178 29.5028 14.0068 29.5604 14.0816 29.7911C14.1769 30.0865 13.9735 30.3347 13.6182 30.3386C12.9548 30.3457 12.2908 30.3424 11.6268 30.3402C11.225 30.3386 11.0853 30.1983 11.0853 29.7906C11.0842 25.5888 11.0842 21.3871 11.0853 17.1853C11.0853 16.7677 11.2244 16.6346 11.6523 16.634C12.6477 16.6329 13.6437 16.634 14.6392 16.6329C14.7262 16.6329 14.8132 16.6258 14.9828 16.6181C14.7528 16.4954 14.5843 16.4258 14.438 16.3244C13.4769 15.6563 12.4133 15.4585 11.2527 15.5489C10.4391 15.6125 9.98623 16.006 9.98623 16.8077C9.98623 21.5745 9.98623 26.3418 9.98623 31.1086C9.98623 31.205 9.98623 31.3015 9.98623 31.3908H34.3256C34.3294 31.3228 34.335 31.2785 34.335 31.2335C34.335 26.3845 34.3366 21.5356 34.3333 16.6866C34.3333 16.0641 33.8772 15.5966 33.2486 15.5664C32.9266 15.5506 32.6013 15.5856 32.2815 15.5549C31.6419 15.4936 31.0704 15.6382 30.5301 15.9835C30.1742 16.2109 29.7829 16.3847 29.4077 16.5825C29.4132 16.5995 29.4188 16.6165 29.4249 16.6335C29.5152 16.6335 29.6056 16.6335 29.6959 16.6335C30.673 16.6335 31.6502 16.6335 32.6273 16.6335C33.1112 16.6335 33.237 16.754 33.237 17.2259C33.2376 21.4002 33.2376 25.5746 33.237 29.7494C33.237 30.2191 33.1101 30.3408 32.6257 30.3408C26.9285 30.3408 21.232 30.3408 15.5348 30.3408C15.4522 30.3408 15.3663 30.3468 15.2871 30.3287C15.0637 30.2772 14.9229 30.1331 14.9329 29.9045C14.9418 29.6936 15.0693 29.5478 15.2921 29.5171C15.4101 29.5006 15.5309 29.5006 15.6501 29.5006C21.0984 29.5001 26.5461 29.5001 31.9944 29.5001H32.384V17.4955H28.6894C28.6894 17.6418 28.6905 17.7679 28.6894 17.8939C28.6833 18.4222 28.7298 18.9577 28.6595 19.4777C28.4644 20.9136 27.6818 21.9417 26.3405 22.5445C26.2701 22.5763 26.1559 22.6371 26.1581 22.6799C26.1714 22.9643 26.1448 23.2761 26.2562 23.5244C26.4635 23.988 26.7695 24.4073 27.0089 24.8583C27.3974 25.5899 27.0061 26.4585 26.2052 26.6514C26.0212 26.6958 25.8211 26.6876 25.6288 26.6865C24.5447 26.6794 23.9705 25.6918 24.5054 24.7536C24.7271 24.3651 24.9726 23.9891 25.1749 23.5918C25.2735 23.3978 25.299 23.1671 25.3694 22.9117C25.2081 22.9462 25.1355 22.9583 25.0651 22.9774C22.8592 23.5704 20.681 23.48 18.5189 22.7522C17.1776 22.3006 16.2265 21.4791 15.7903 20.1173C15.5963 19.5123 15.6385 18.893 15.6329 18.2748C15.6307 18.0139 15.6329 17.7531 15.6329 17.49H11.9377L11.9372 17.4895ZM35.4751 32.2704C35.4246 32.2644 35.3892 32.2561 35.3537 32.2561C32.1645 32.255 28.9754 32.2561 25.7862 32.2512C25.6205 32.2512 25.5751 32.3214 25.5263 32.4595C25.2547 33.2344 24.7115 33.7523 23.8802 33.7939C22.7323 33.852 21.5761 33.8525 20.4283 33.7912C19.5969 33.7468 19.0615 33.2229 18.7877 32.4479C18.7667 32.3882 18.7428 32.3301 18.7201 32.2698H8.85667C8.6383 33.7183 9.69414 34.6444 10.8442 34.5781C11.4594 34.5425 12.0791 34.5721 12.6965 34.5721C19.6002 34.5721 26.504 34.5732 33.4083 34.5683C33.681 34.5683 33.967 34.5513 34.2236 34.4707C35.1209 34.189 35.5732 33.3823 35.4756 32.2704H35.4751ZM16.466 17.3903C16.466 18.0249 16.4272 18.6107 16.4743 19.1895C16.5718 20.394 17.1693 21.2988 18.31 21.7707C20.522 22.6859 22.7872 22.778 25.0884 22.1105C25.2819 22.0546 25.3212 21.9674 25.3195 21.7871C25.3112 20.8577 25.3157 19.9282 25.3151 18.9988C25.3151 18.922 25.3074 18.8448 25.3013 18.7313C24.701 19.0437 24.1318 19.3352 23.567 19.6361C22.6253 20.1381 21.6892 20.1348 20.7481 19.6323C19.971 19.2174 19.1879 18.8135 18.4075 18.4052C17.7751 18.0742 17.1421 17.7438 16.4665 17.3903H16.466ZM27.9096 17.444C27.8752 17.4347 27.8414 17.4259 27.807 17.4166C27.3204 17.672 26.8376 17.9334 26.346 18.1784C26.1947 18.254 26.1371 18.3378 26.1387 18.5094C26.1482 19.5029 26.1426 20.496 26.1443 21.4895C26.1443 21.5553 26.1576 21.6211 26.167 21.7104C26.989 21.284 27.5676 20.6648 27.7305 19.8005C27.8752 19.0305 27.8564 18.2304 27.9101 17.4434L27.9096 17.444ZM24.7104 32.2742H19.6352C19.8064 32.7126 20.1528 32.9784 20.5996 32.9828C21.6388 32.9927 22.6785 32.9943 23.7183 32.9828C24.1867 32.9773 24.4965 32.7148 24.7104 32.2748V32.2742ZM25.7302 24.3157C25.5401 24.6424 25.3617 24.9295 25.2032 25.2266C25.0352 25.5411 25.2165 25.8431 25.5751 25.8656C25.6759 25.8721 25.7779 25.8716 25.8788 25.8656C26.2385 25.8442 26.4225 25.545 26.2568 25.2298C26.0999 24.9317 25.9209 24.6456 25.7297 24.3152L25.7302 24.3157Z" fill="#006197" stroke="#006197" stroke-width="0.1"/>
<path d="M17.7106 28.4256C16.3937 28.4256 15.0768 28.4262 13.7599 28.424C13.6508 28.424 13.5371 28.4196 13.434 28.3884C13.234 28.3275 13.1054 28.1659 13.1614 27.9757C13.2024 27.8354 13.3487 27.711 13.4762 27.6162C13.5443 27.5658 13.6718 27.5861 13.7721 27.5861C16.4059 27.585 19.0397 27.585 21.6735 27.5861C21.7738 27.5861 21.8775 27.591 21.9745 27.6129C22.1685 27.6573 22.2704 27.7888 22.2793 27.9839C22.2882 28.1779 22.2028 28.3237 22.0133 28.3834C21.9107 28.4158 21.7971 28.4234 21.6885 28.4234C20.3622 28.4262 19.037 28.4256 17.7106 28.4256Z" fill="#4DC9F5" stroke="#4DC9F5" stroke-width="0.1"/>
<path d="M16.3227 26.6879C15.4386 26.6879 14.5552 26.689 13.6711 26.6879C13.3331 26.6873 13.1396 26.5284 13.1485 26.2664C13.1568 26.0143 13.3447 25.868 13.6695 25.868C15.4553 25.8669 17.2416 25.8669 19.0274 25.868C19.3439 25.868 19.5401 26.0291 19.5406 26.2785C19.5412 26.53 19.3494 26.6868 19.0291 26.6873C18.1268 26.689 17.2244 26.6879 16.3227 26.6879Z" fill="#4DC9F5" stroke="#4DC9F5" stroke-width="0.1"/>
</svg>
