<svg width="16" height="19" viewBox="0 0 16 19" fill="none" xmlns="http://www.w3.org/2000/svg">
<g id="ic_apple">
<path id="Vector" d="M13.3428 10.0357C13.3343 8.47968 14.0381 7.30525 15.4627 6.44032C14.6656 5.2998 13.4615 4.67231 11.8716 4.54935C10.3664 4.43063 8.72135 5.427 8.1193 5.427C7.48332 5.427 6.02481 4.59175 4.88006 4.59175C2.51423 4.62991 0 6.47848 0 10.2392C0 11.3501 0.203512 12.4976 0.610537 13.682C1.15324 15.238 3.11204 19.0538 5.15565 18.9902C6.22409 18.9648 6.97878 18.2313 8.36945 18.2313C9.71772 18.2313 10.4173 18.9902 11.6087 18.9902C13.6692 18.9606 15.4415 15.4924 15.9588 13.9321C13.1944 12.6305 13.3428 10.1163 13.3428 10.0357ZM10.943 3.07389C12.1005 1.70018 11.9945 0.449423 11.9606 0C10.9388 0.0593578 9.75588 0.695334 9.08174 1.4797C8.33977 2.31919 7.90306 3.35795 7.99634 4.52815C9.10294 4.61295 10.112 4.04481 10.943 3.07389Z" fill="black"/>
</g>
</svg>
