<svg width="35" height="35" viewBox="0 0 35 35" fill="none" xmlns="http://www.w3.org/2000/svg">
<g id="ic_back">
<g id="Group">
<g id="Group_2">
<path id="Vector" d="M6.57287 16.003L6.3153 16.2594H6.67868H31.6328C32.3051 16.2594 32.85 16.8043 32.85 17.4766C32.85 18.1488 32.3051 18.6937 31.6328 18.6937H6.67868H6.31531L6.57287 18.9501L11.3691 23.7232C11.3691 23.7232 11.3691 23.7232 11.3691 23.7232C11.8456 24.1974 11.8474 24.9681 11.3732 25.4445L11.4795 25.5503L11.3732 25.4445C10.8989 25.9211 10.1282 25.9228 9.65175 25.4487L2.50974 18.3411L2.50978 18.3411L2.50686 18.3382C2.03029 17.8624 2.03177 17.0891 2.50697 16.615L2.50701 16.615L2.50962 16.6123L9.65189 9.50444C10.1284 9.03028 10.8991 9.03206 11.3733 9.50858L11.3733 9.50858C11.8475 9.98505 11.8457 10.7557 11.3692 11.2299L6.57287 16.003Z" fill="black" stroke="white" stroke-width="0.3"/>
</g>
</g>
</g>
</svg>
