<svg width="26" height="26" viewBox="0 0 26 26" fill="none" xmlns="http://www.w3.org/2000/svg">
<g id="ic_back">
<path id="Vector" d="M18.0709 0.612129H7.98957C5.72298 0.612129 3.8676 1.2889 2.57845 2.5774C1.28929 3.86592 0.612121 5.72049 0.612121 7.98609V18.0504C0.612121 20.3217 1.28912 22.1793 2.57828 23.4694C3.86747 24.7596 5.72297 25.4364 7.98957 25.4364H18.0589C20.3255 25.4364 22.1808 24.7596 23.47 23.4711C24.7592 22.1826 25.4363 20.328 25.4363 18.0624L25.4363 7.98716C25.4363 7.98692 25.4363 7.98669 25.4363 7.98646C25.4424 5.72092 24.7684 3.86625 23.4807 2.57757C22.193 1.28887 20.3374 0.612129 18.0709 0.612129Z" fill="white" stroke="#EAEAEA" stroke-width="0.775758"/>
<path id="Vector_2" d="M8 18L13 13M13 13L18 8.00001M13 13L8 8.00001M13 13L18 18" stroke="black" stroke-width="1.5" stroke-linecap="round" stroke-linejoin="round"/>
</g>
</svg>
