<svg width="20" height="21" viewBox="0 0 20 21" fill="none" xmlns="http://www.w3.org/2000/svg">
<path d="M15.3368 20.1082C15.0474 20.0341 14.7516 19.9796 14.4694 19.8834C12.7029 19.2819 11.5655 17.5228 11.7195 15.6473C11.8772 13.7301 13.38 12.1455 15.2604 11.9142C17.5208 11.6359 19.5165 13.1813 19.8316 15.4526C19.8358 15.4816 19.8551 15.5083 19.8672 15.5362V16.4507C19.8551 16.4785 19.8358 16.5052 19.8316 16.5343C19.5925 18.254 18.3851 19.5975 16.7136 20.0005C16.557 20.0383 16.3997 20.0723 16.2423 20.1082H15.336H15.3368ZM15.7873 19.1941C17.5254 19.1956 18.9601 17.7499 18.9616 15.9953C18.9631 14.2404 17.5314 12.7935 15.7922 12.792C14.0533 12.7905 12.6197 14.2351 12.6178 15.99C12.6163 17.7441 14.0488 19.1922 15.7869 19.1937L15.7873 19.1941Z" fill="#3D86AF" stroke="#3D86AF" stroke-width="0.222987"/>
<path d="M1.74411 6.71022C1.74411 6.79304 1.74411 6.86212 1.74411 6.9312C1.74411 10.2899 1.74411 13.6485 1.74411 17.0072C1.74411 17.664 2.05239 17.9762 2.70072 17.9762C5.41851 17.9762 8.13667 17.9762 10.8545 17.9762C11.1801 17.9762 11.3772 18.1564 11.3715 18.4446C11.367 18.6785 11.193 18.8678 10.9623 18.8873C10.9184 18.8911 10.8741 18.8892 10.8303 18.8892C8.08107 18.8892 5.33151 18.89 2.58233 18.8892C1.70704 18.8892 1.03147 18.3255 0.863902 17.4564C0.843854 17.3515 0.840072 17.2423 0.840072 17.1351C0.839315 12.7157 0.838937 8.29681 0.840072 3.87787C0.840072 2.87447 1.586 2.12908 2.58536 2.12641C2.79907 2.12603 3.01241 2.12641 3.25563 2.12641C3.25563 1.88787 3.25487 1.65619 3.25563 1.42414C3.25676 1.1085 3.43341 0.907365 3.70765 0.907365C3.98264 0.907365 4.15853 1.10736 4.16005 1.42338C4.16118 1.65047 4.16005 1.87756 4.16005 2.11534H9.29642C9.29642 1.8642 9.29225 1.60696 9.29755 1.3501C9.30209 1.1272 9.46285 0.944005 9.67051 0.910418C9.89255 0.874542 10.1048 0.998965 10.1751 1.21537C10.1959 1.27987 10.1989 1.35201 10.1997 1.42071C10.2027 1.64818 10.2008 1.87565 10.2008 2.11419H15.3368C15.3368 1.90084 15.3368 1.69322 15.3368 1.48559C15.3368 1.11346 15.4946 0.909655 15.7843 0.906983C16.0824 0.904312 16.2412 1.1085 16.2416 1.49437C16.2416 1.69665 16.2416 1.89893 16.2416 2.12564C16.4712 2.12564 16.6891 2.12526 16.9066 2.12564C17.9173 2.12793 18.6572 2.87142 18.6576 3.89047C18.6587 6.2713 18.6572 8.65214 18.6591 11.033C18.6591 11.2444 18.5845 11.4055 18.3928 11.4948C18.2244 11.5734 18.041 11.565 17.9222 11.4249C17.8329 11.3196 17.7615 11.1604 17.7599 11.0242C17.7482 9.65936 17.7528 8.29414 17.7528 6.9293C17.7528 6.86022 17.7528 6.79113 17.7528 6.70908H1.74411V6.71022ZM9.29679 3.05309H4.16042C4.16042 3.29431 4.16156 3.52216 4.16042 3.75002C4.15853 4.06222 3.97659 4.26221 3.70008 4.2584C3.43379 4.25458 3.2579 4.05535 3.25601 3.75269C3.25487 3.51987 3.25601 3.28744 3.25601 3.04012C3.00901 3.04012 2.78394 3.03515 2.55888 3.04126C2.09286 3.05347 1.75546 3.39507 1.746 3.86642C1.73995 4.17099 1.74487 4.47595 1.74449 4.78052C1.74449 5.10875 1.74449 5.43736 1.74449 5.77437H17.7482C17.7482 5.09959 17.7645 4.43396 17.7414 3.77024C17.7297 3.44163 17.533 3.17408 17.2134 3.10004C16.9032 3.0279 16.5733 3.04355 16.2428 3.02027C16.2428 3.2985 16.2439 3.52674 16.2428 3.75498C16.2409 4.05688 16.0642 4.25572 15.7972 4.25916C15.5214 4.26259 15.3402 4.06146 15.3383 3.74887C15.3372 3.51644 15.3383 3.284 15.3383 3.05462H10.2023C10.2023 3.18897 10.2023 3.30919 10.2023 3.42903C10.2023 3.54964 10.2042 3.67025 10.2016 3.79085C10.1955 4.06184 10.0121 4.25496 9.75827 4.25878C9.49613 4.26298 9.30209 4.06756 9.29793 3.78895C9.29452 3.5485 9.29717 3.30766 9.29717 3.05347L9.29679 3.05309Z" fill="#3D86AF" stroke="#3D86AF" stroke-width="0.222987"/>
<path d="M3.25643 9.87909C3.25643 9.49208 3.25492 9.10507 3.25681 8.71844C3.25832 8.40433 3.43648 8.22418 3.74817 8.2238C4.52776 8.22227 5.30697 8.22227 6.08656 8.2238C6.39787 8.22456 6.57603 8.40471 6.57678 8.7192C6.5783 9.50582 6.5783 10.2924 6.57678 11.079C6.57603 11.3932 6.39711 11.5733 6.0858 11.5741C5.30621 11.5756 4.527 11.5756 3.74741 11.5741C3.438 11.5733 3.25832 11.3909 3.25681 11.0783C3.25492 10.6787 3.25643 10.2791 3.25643 9.87947V9.87909ZM4.16955 10.6478H5.65762V9.14629H4.16955V10.6478Z" fill="#3D86AF" stroke="#3D86AF" stroke-width="0.222987"/>
<path d="M11.4097 9.90991C11.4097 10.303 11.4116 10.6965 11.4089 11.0896C11.407 11.39 11.2251 11.5736 10.9266 11.5744C10.141 11.5763 9.35534 11.5763 8.56932 11.5744C8.27201 11.5736 8.08969 11.3885 8.08931 11.0873C8.08742 10.2942 8.08742 9.50152 8.08931 8.70842C8.09007 8.40843 8.27314 8.22485 8.57197 8.22409C9.35761 8.22218 10.1433 8.22218 10.9293 8.22409C11.2273 8.22485 11.4074 8.40843 11.4093 8.71071C11.4116 9.11032 11.41 9.50992 11.41 9.90953L11.4097 9.90991ZM9.00507 9.14047V10.6488H10.4901V9.14047H9.00507Z" fill="#3D86AF" stroke="#3D86AF" stroke-width="0.222987"/>
<path d="M3.25643 14.7551C3.25643 14.3681 3.25492 13.981 3.25681 13.5944C3.25832 13.2803 3.43648 13.1005 3.74817 13.0998C4.52776 13.0983 5.30697 13.0983 6.08656 13.0998C6.39787 13.1005 6.57603 13.2807 6.57678 13.5952C6.5783 14.3818 6.5783 15.1684 6.57678 15.955C6.57603 16.2691 6.39711 16.4493 6.0858 16.45C5.30621 16.4516 4.527 16.4516 3.74741 16.45C3.43837 16.4493 3.25832 16.2665 3.25681 15.9543C3.25492 15.5547 3.25643 15.1551 3.25643 14.7554V14.7551ZM5.65913 15.5291V14.0276H4.17144V15.5291H5.65913Z" fill="#3D86AF" stroke="#3D86AF" stroke-width="0.222987"/>
<path d="M16.2421 15.5385C16.4913 15.5385 16.7221 15.5374 16.9532 15.5385C17.2509 15.5404 17.448 15.7206 17.4499 15.9904C17.4517 16.2618 17.2554 16.4492 16.9611 16.4507C16.5776 16.4526 16.1937 16.4534 15.8101 16.4507C15.5238 16.4484 15.3395 16.2629 15.3384 15.974C15.3358 15.3775 15.3358 14.7805 15.3384 14.184C15.3395 13.9039 15.5325 13.7081 15.7938 13.71C16.0552 13.7119 16.2398 13.9077 16.2413 14.192C16.244 14.6348 16.2421 15.0771 16.2421 15.5385Z" fill="#3D86AF" stroke="#3D86AF" stroke-width="0.222987"/>
</svg>
