<svg width="22" height="22" viewBox="0 0 22 22" fill="none" xmlns="http://www.w3.org/2000/svg">
<path d="M11.3536 0.501953C5.63873 0.501953 0.974609 5.1664 0.974609 10.881C0.974609 16.5959 5.63905 21.26 11.3536 21.26C17.0686 21.26 21.7327 16.5955 21.7327 10.881C21.7327 5.16607 17.0682 0.501953 11.3536 0.501953ZM11.3536 20.0437C6.30128 20.0437 2.1909 15.9333 2.1909 10.881C2.1909 5.82863 6.30128 1.71825 11.3536 1.71825C16.406 1.71825 20.5164 5.82863 20.5164 10.881C20.5164 15.9333 16.406 20.0437 11.3536 20.0437Z" fill="#3D86AF"/>
<path d="M6.19262 16.6479C6.52849 16.6479 6.80077 16.3757 6.80077 16.0398C6.80077 15.7039 6.52849 15.4316 6.19262 15.4316C5.85675 15.4316 5.58447 15.7039 5.58447 16.0398C5.58447 16.3757 5.85675 16.6479 6.19262 16.6479Z" fill="#3D86AF"/>
<path d="M16.5139 6.33055C16.8498 6.33055 17.1221 6.05827 17.1221 5.7224C17.1221 5.38653 16.8498 5.11426 16.5139 5.11426C16.178 5.11426 15.9058 5.38653 15.9058 5.7224C15.9058 6.05827 16.178 6.33055 16.5139 6.33055Z" fill="#3D86AF"/>
<path d="M5.7626 5.29238C5.5251 5.52989 5.5251 5.91492 5.7626 6.15242C6.0001 6.38993 6.38514 6.38993 6.62264 6.15242C6.86014 5.91492 6.86014 5.52989 6.62264 5.29238C6.38518 5.05488 6.0001 5.05488 5.7626 5.29238Z" fill="#3D86AF"/>
<path d="M16.0839 15.6098C15.8464 15.8473 15.8464 16.2323 16.0839 16.4698C16.3214 16.7073 16.7064 16.7073 16.9439 16.4698C17.1814 16.2323 17.1814 15.8473 16.9439 15.6098C16.7064 15.3723 16.3213 15.3723 16.0839 15.6098Z" fill="#3D86AF"/>
<path d="M11.3538 5.40719C11.6896 5.40719 11.9619 5.13491 11.9619 4.79905V3.58276C11.9619 3.2469 11.6896 2.97461 11.3538 2.97461C11.0179 2.97461 10.7456 3.2469 10.7456 3.58276V4.79905C10.7456 5.13491 11.0179 5.40719 11.3538 5.40719Z" fill="#3D86AF"/>
<path d="M11.3538 16.3545C11.0179 16.3545 10.7456 16.6268 10.7456 16.9626V18.1789C10.7456 18.5148 11.0179 18.7871 11.3538 18.7871C11.6896 18.7871 11.9619 18.5148 11.9619 18.1789V16.9626C11.9619 16.6268 11.6896 16.3545 11.3538 16.3545Z" fill="#3D86AF"/>
<path d="M5.87985 10.8816C5.87985 10.5457 5.60756 10.2734 5.2717 10.2734H4.05541C3.71955 10.2734 3.44727 10.5457 3.44727 10.8816C3.44727 11.2174 3.71955 11.4897 4.05541 11.4897H5.2717C5.60756 11.4897 5.87985 11.2174 5.87985 10.8816Z" fill="#3D86AF"/>
<path d="M16.8267 10.8816C16.8267 11.2174 17.0989 11.4897 17.4348 11.4897H18.6511C18.987 11.4897 19.2592 11.2174 19.2592 10.8816C19.2592 10.5457 18.987 10.2734 18.6511 10.2734H17.4348C17.0989 10.2734 16.8267 10.5457 16.8267 10.8816Z" fill="#3D86AF"/>
<path d="M11.9619 10.6292V7.23217C11.9619 6.89631 11.6896 6.62402 11.3538 6.62402C11.0179 6.62402 10.7456 6.89631 10.7456 7.23217V10.881C10.7456 11.0423 10.8097 11.197 10.9238 11.3111L14.5726 14.96C14.8101 15.1974 15.1952 15.1975 15.4327 14.96C15.6702 14.7225 15.6702 14.3374 15.4327 14.0999L11.9619 10.6292Z" fill="#3D86AF"/>
</svg>
