<svg width="22" height="21" viewBox="0 0 22 21" fill="none" xmlns="http://www.w3.org/2000/svg">
<path d="M2.83912 20.5423C2.70676 20.5182 2.57323 20.4996 2.44242 20.4689C1.57195 20.2634 0.980209 19.5233 0.975148 18.6363C0.97398 18.4358 0.973591 18.2357 0.975148 18.0353C0.977484 17.8076 1.07403 17.7035 1.30177 17.6922C1.44932 17.6848 1.59803 17.6907 1.781 17.6907C1.781 17.5935 1.781 17.5135 1.781 17.4331C1.781 14.0799 1.78412 10.7267 1.77789 7.37344C1.77672 6.79496 1.97293 6.32797 2.48758 6.05057C2.70053 5.93558 2.96253 5.8975 3.2074 5.86021C3.40283 5.83029 3.60682 5.85399 3.8225 5.85399C3.79252 5.70597 3.74697 5.57154 3.74113 5.43595C3.71972 4.93206 3.92955 4.54083 4.37569 4.30384C6.25835 3.30304 8.14179 2.30458 10.0307 1.3166C10.6115 1.01279 11.213 1.0225 11.8028 1.31194C12.0753 1.44559 12.342 1.59128 12.6082 1.73619C12.7862 1.83293 12.8449 2.00504 12.7616 2.15578C12.6822 2.29914 12.5136 2.34382 12.3412 2.2564C12.0932 2.13091 11.8495 1.99766 11.6035 1.86828C11.1452 1.6278 10.6882 1.63013 10.2304 1.87217C8.38043 2.85043 6.53047 3.82831 4.67974 4.80541C4.46095 4.92079 4.33014 5.09679 4.3282 5.34388C4.32625 5.59796 4.45355 5.7794 4.68168 5.89944C6.5441 6.88159 8.40457 7.86763 10.267 8.84978C10.6831 9.06928 11.1125 9.07938 11.5338 8.86842C12.0068 8.63105 12.4716 8.37774 12.9598 8.12093C12.6172 7.73009 12.2867 7.35247 11.955 6.97561C11.5579 6.52378 11.16 6.0735 10.7633 5.62127C10.5921 5.42585 10.5819 5.25607 10.7299 5.1302C10.8692 5.01131 11.0468 5.05133 11.2142 5.23937C11.2313 5.25879 11.248 5.27861 11.2652 5.29803C11.9608 6.08981 12.6561 6.88159 13.3518 7.67337C13.3942 7.72194 13.4386 7.76856 13.4974 7.83266C13.7563 7.69746 14.0179 7.56226 14.278 7.42473C15.2201 6.92627 16.1602 6.42432 17.1051 5.93053C17.3488 5.80309 17.5134 5.63021 17.5123 5.34737C17.5111 5.0626 17.3367 4.89399 17.0961 4.76811C15.8834 4.13173 14.6735 3.48992 13.4616 2.85199C13.3269 2.78089 13.2202 2.69347 13.2323 2.52719C13.2486 2.30225 13.4729 2.19696 13.6987 2.3139C14.2379 2.59324 14.7735 2.8784 15.3104 3.16202C15.95 3.50002 16.5888 3.83919 17.2285 4.17719C18.0308 4.60105 18.2002 4.95576 18.0191 5.83961C18.315 5.85477 18.614 5.84738 18.9056 5.88934C19.5464 5.98142 20.0198 6.52028 20.054 7.16404C20.0591 7.26078 20.0602 7.3579 20.0602 7.45464C20.0602 10.7756 20.0602 14.0966 20.0602 17.4175V17.6658C20.3409 17.7427 20.6621 17.5831 20.8673 17.8678V18.9149C20.8548 18.9436 20.8381 18.9712 20.8311 19.0011C20.6422 19.8042 20.1397 20.2945 19.3408 20.4872C19.2299 20.514 19.115 20.5252 19.0021 20.5435H2.83912V20.5423ZM3.73958 7.81906V16.3332C3.81821 16.3332 3.88751 16.3332 3.95681 16.3332C4.27409 16.3332 4.59137 16.3321 4.90865 16.3344C5.06047 16.3356 5.19323 16.3763 5.24578 16.5399C5.31274 16.7493 5.16987 16.9253 4.92033 16.928C4.45433 16.9331 3.98795 16.9307 3.52157 16.9292C3.23932 16.928 3.14122 16.8286 3.14122 16.5395C3.14044 13.5608 3.14044 10.5821 3.14122 7.60344C3.14122 7.3074 3.23893 7.21299 3.53947 7.2126C4.23866 7.21183 4.93823 7.2126 5.63742 7.21182C5.69854 7.21182 5.75966 7.20677 5.87878 7.20133C5.71722 7.11431 5.59888 7.06497 5.4961 6.99309C4.82105 6.5195 4.07398 6.37925 3.25879 6.44336C2.68729 6.48842 2.36924 6.76737 2.36924 7.33576C2.36924 10.715 2.36924 14.0946 2.36924 17.4739C2.36924 17.5423 2.36924 17.6106 2.36924 17.674H19.465C19.4677 17.6258 19.4716 17.5943 19.4716 17.5625C19.4716 14.1249 19.4728 10.6874 19.4705 7.2499C19.4705 6.80855 19.1501 6.47716 18.7086 6.45579C18.4824 6.44452 18.2539 6.46939 18.0293 6.44763C17.58 6.40412 17.1786 6.50668 16.7991 6.75144C16.5491 6.91267 16.2743 7.03583 16.0107 7.17608C16.0146 7.18813 16.0185 7.20017 16.0228 7.21221C16.0863 7.21221 16.1497 7.21221 16.2132 7.21221C16.8995 7.21221 17.5858 7.21221 18.2722 7.21221C18.612 7.21221 18.7004 7.29769 18.7004 7.63219C18.7008 10.5915 18.7008 13.5507 18.7004 16.5104C18.7004 16.8433 18.6113 16.9296 18.271 16.9296C14.2694 16.9296 10.2682 16.9296 6.26653 16.9296C6.20852 16.9296 6.14818 16.9339 6.09251 16.921C5.93562 16.8845 5.83674 16.7823 5.84375 16.6203C5.84998 16.4708 5.93952 16.3674 6.09601 16.3457C6.17894 16.334 6.2638 16.334 6.3475 16.334C10.1743 16.3336 14.0008 16.3336 17.8276 16.3336H18.1013V7.82334H15.5062C15.5062 7.92707 15.507 8.01643 15.5062 8.10578C15.5019 8.4803 15.5346 8.85988 15.4852 9.22857C15.3481 10.2465 14.7985 10.9753 13.8563 11.4027C13.8069 11.4252 13.7267 11.4683 13.7283 11.4986C13.7376 11.7003 13.7189 11.9213 13.7972 12.0973C13.9428 12.426 14.1577 12.7232 14.3258 13.0429C14.5987 13.5616 14.3239 14.1774 13.7614 14.3141C13.6321 14.3456 13.4916 14.3398 13.3565 14.339C12.595 14.334 12.1917 13.6339 12.5674 12.9687C12.7231 12.6933 12.8955 12.4268 13.0376 12.1451C13.1069 12.0076 13.1248 11.844 13.1743 11.663C13.061 11.6874 13.01 11.696 12.9606 11.7096C11.4111 12.13 9.88119 12.0658 8.36252 11.5499C7.42042 11.2298 6.75238 10.6474 6.446 9.68196C6.30974 9.25305 6.33933 8.81403 6.33543 8.3758C6.33388 8.19087 6.33543 8.00594 6.33543 7.81945H3.73996L3.73958 7.81906ZM20.2724 18.2975C20.237 18.2932 20.2121 18.2874 20.1872 18.2874C17.9471 18.2866 15.7071 18.2874 13.467 18.2839C13.3506 18.2839 13.3187 18.3337 13.2845 18.4316C13.0937 18.9809 12.7122 19.348 12.1282 19.3776C11.322 19.4188 10.5099 19.4191 9.70367 19.3756C9.11972 19.3442 8.74365 18.9727 8.55134 18.4234C8.53654 18.381 8.5198 18.3399 8.50384 18.2971H1.57584C1.42246 19.324 2.16407 19.9805 2.97187 19.9335C3.404 19.9083 3.83924 19.9293 4.27292 19.9293C9.12205 19.9293 13.9712 19.93 18.8207 19.9265C19.0122 19.9265 19.2131 19.9145 19.3934 19.8574C20.0236 19.6577 20.3413 19.0858 20.2728 18.2975H20.2724ZM6.92055 7.74874C6.92055 8.19864 6.8933 8.61395 6.92639 9.02422C6.99491 9.87816 7.41458 10.5196 8.21576 10.8541C9.76946 11.5029 11.3605 11.5682 12.9769 11.095C13.1128 11.0553 13.1404 10.9936 13.1392 10.8657C13.1334 10.2068 13.1365 9.54792 13.1361 8.88901C13.1361 8.83462 13.1307 8.77984 13.1264 8.69942C12.7048 8.92087 12.305 9.12756 11.9083 9.34085C11.2469 9.69672 10.5893 9.69439 9.92829 9.33813C9.38249 9.04403 8.83241 8.7577 8.28428 8.46826C7.84008 8.2336 7.3955 7.99933 6.92094 7.74874H6.92055ZM14.9585 7.78682C14.9343 7.78021 14.9106 7.774 14.8864 7.76739C14.5446 7.94844 14.2055 8.13375 13.8602 8.30742C13.754 8.36103 13.7135 8.42047 13.7146 8.54208C13.7213 9.24644 13.7174 9.95042 13.7185 10.6548C13.7185 10.7014 13.7279 10.748 13.7345 10.8114C14.3118 10.5091 14.7183 10.0701 14.8327 9.4574C14.9343 8.91155 14.9211 8.34433 14.9588 7.78643L14.9585 7.78682ZM12.7114 18.3002H9.14658C9.26687 18.611 9.51019 18.7995 9.82396 18.8026C10.5539 18.8096 11.2842 18.8107 12.0146 18.8026C12.3435 18.7987 12.5611 18.6126 12.7114 18.3006V18.3002ZM13.4277 12.6583C13.2942 12.8899 13.1688 13.0935 13.0575 13.304C12.9395 13.527 13.0668 13.7411 13.3187 13.757C13.3896 13.7617 13.4612 13.7613 13.5321 13.757C13.7847 13.7419 13.914 13.5297 13.7976 13.3064C13.6874 13.095 13.5616 12.8922 13.4273 12.6579L13.4277 12.6583Z" fill="#3D86AF" stroke="#3D86AF" stroke-width="0.334481"/>
</svg>
