<svg width="21" height="21" viewBox="0 0 21 21" fill="none" xmlns="http://www.w3.org/2000/svg">
<path d="M16 21.0008C15.6806 20.9198 15.3542 20.8601 15.0427 20.755C13.0932 20.0972 11.8379 18.1737 12.0078 16.1228C12.1819 14.0265 13.8404 12.2937 15.9157 12.0407C18.4104 11.7365 20.613 13.4263 20.9607 15.91C20.9653 15.9417 20.9866 15.9709 20.9999 16.0014V17.0013C20.9866 17.0318 20.9653 17.061 20.9607 17.0927C20.6969 18.9733 19.3643 20.4424 17.5196 20.8831C17.3467 20.9244 17.1731 20.9615 16.9994 21.0008H15.9992H16ZM16.4972 20.0012C18.4154 20.0029 19.9989 18.422 20.0005 16.5034C20.0022 14.5845 18.4221 13.0023 16.5026 13.0006C14.5835 12.999 13.0013 14.5786 12.9993 16.4976C12.9976 18.4157 14.5785 19.9991 16.4968 20.0008L16.4972 20.0012Z" fill="#006197"/>
<path d="M0.998528 6.3487C0.998528 6.43927 0.998528 6.51481 0.998528 6.59035C0.998528 10.263 0.998528 13.9357 0.998528 17.6083C0.998528 18.3266 1.33876 18.668 2.05429 18.668C5.05377 18.668 8.05366 18.668 11.0531 18.668C11.4126 18.668 11.6301 18.865 11.6238 19.18C11.6188 19.4359 11.4268 19.6429 11.1721 19.6642C11.1237 19.6683 11.0748 19.6663 11.0264 19.6663C7.9923 19.6663 4.95775 19.6671 1.92363 19.6663C0.957617 19.6663 0.212027 19.0498 0.0270906 18.0995C0.00496506 17.9848 0.000790422 17.8654 0.000790422 17.7481C-4.45054e-05 12.9157 -0.000461969 8.08362 0.000790422 3.25157C0.000790422 2.15436 0.824029 1.33928 1.92697 1.33636C2.16283 1.33595 2.39828 1.33636 2.66671 1.33636C2.66671 1.07552 2.66588 0.822191 2.66671 0.568443C2.66797 0.223297 2.86292 0.00335499 3.16558 0.00335499C3.46908 0.00335499 3.6632 0.222045 3.66487 0.567609C3.66612 0.81593 3.66487 1.06425 3.66487 1.32426H9.33361C9.33361 1.04964 9.32901 0.768353 9.33486 0.487478C9.33987 0.243747 9.51729 0.0434203 9.74648 0.00669377C9.99153 -0.0325369 10.2257 0.103518 10.3034 0.340154C10.3263 0.410686 10.3297 0.489565 10.3305 0.564687C10.3338 0.813426 10.3318 1.06217 10.3318 1.32301H16.0001C16.0001 1.08971 16.0001 0.862673 16.0001 0.635636C16.0001 0.228723 16.1742 0.00585907 16.4939 0.00293764C16.8229 1.62085e-05 16.9982 0.223297 16.9987 0.645235C16.9987 0.866429 16.9987 1.08762 16.9987 1.33553C17.2521 1.33553 17.4925 1.33511 17.7326 1.33553C18.848 1.33803 19.6646 2.15103 19.665 3.26534C19.6662 5.86876 19.6646 8.47217 19.6667 11.0756C19.6667 11.3068 19.5844 11.4829 19.3728 11.5806C19.187 11.6665 18.9845 11.6574 18.8534 11.5042C18.7549 11.389 18.676 11.215 18.6744 11.066C18.6614 9.57355 18.6664 8.0807 18.6664 6.58826C18.6664 6.51272 18.6664 6.43718 18.6664 6.34745H0.998528V6.3487ZM9.33402 2.34968H3.66529C3.66529 2.61345 3.66654 2.8626 3.66529 3.11176C3.6632 3.45315 3.4624 3.67184 3.15723 3.66767C2.86334 3.66349 2.66922 3.44564 2.66713 3.11468C2.66588 2.8601 2.66713 2.60593 2.66713 2.33549C2.39453 2.33549 2.14614 2.33007 1.89775 2.33674C1.38343 2.3501 1.01105 2.72363 1.00062 3.23905C0.993936 3.57209 0.999363 3.90555 0.998946 4.2386C0.998946 4.59752 0.998946 4.95685 0.998946 5.32537H18.6614C18.6614 4.5875 18.6794 3.85965 18.6539 3.13388C18.641 2.77454 18.4239 2.48198 18.0711 2.40102C17.7288 2.32214 17.3648 2.33925 16.9999 2.31379C16.9999 2.61804 17.0012 2.86761 16.9999 3.11718C16.9978 3.44731 16.8029 3.66474 16.5081 3.6685C16.2038 3.67226 16.0038 3.45231 16.0018 3.11051C16.0005 2.85634 16.0018 2.60218 16.0018 2.35135H10.3334C10.3334 2.49826 10.3334 2.62972 10.3334 2.76077C10.3334 2.89265 10.3355 3.02453 10.3326 3.15641C10.3259 3.45273 10.1234 3.66391 9.84333 3.66808C9.55403 3.67267 9.33987 3.45899 9.33528 3.15433C9.33152 2.8914 9.33444 2.62805 9.33444 2.3501L9.33402 2.34968Z" fill="#006197"/>
<path d="M2.66665 9.81275C2.66665 9.38956 2.66498 8.96637 2.66707 8.5436C2.66874 8.20012 2.86536 8.00313 3.20935 8.00272C4.06974 8.00105 4.92972 8.00105 5.79011 8.00272C6.13368 8.00355 6.33031 8.20054 6.33114 8.54443C6.33281 9.40459 6.33281 10.2647 6.33114 11.1249C6.33031 11.4684 6.13285 11.6654 5.78927 11.6662C4.92888 11.6679 4.06891 11.6679 3.20852 11.6662C2.86703 11.6654 2.66874 11.4659 2.66707 11.1241C2.66498 10.6871 2.66665 10.2501 2.66665 9.81317V9.81275ZM3.6744 10.6533H5.31671V9.01145H3.6744V10.6533Z" fill="#006197"/>
<path d="M11.6651 9.84548C11.6651 10.2753 11.6672 10.7056 11.6642 11.1355C11.6622 11.4639 11.4614 11.6647 11.132 11.6655C10.2649 11.6676 9.39784 11.6676 8.53035 11.6655C8.20222 11.6647 8.00101 11.4623 8.00059 11.133C7.9985 10.2657 7.9985 9.39891 8.00059 8.53167C8.00142 8.20363 8.20348 8.00289 8.53327 8.00205C9.40034 7.99997 10.2674 7.99997 11.1349 8.00205C11.4639 8.00289 11.6626 8.20363 11.6647 8.53417C11.6672 8.97113 11.6655 9.4081 11.6655 9.84506L11.6651 9.84548ZM9.01127 9.0041V10.6535H10.6502V9.0041H9.01127Z" fill="#006197"/>
<path d="M2.66665 15.1462C2.66665 14.7231 2.66498 14.2999 2.66707 13.8771C2.66874 13.5336 2.86536 13.337 3.20935 13.3362C4.06974 13.3345 4.92972 13.3345 5.79011 13.3362C6.13368 13.337 6.33031 13.534 6.33114 13.8779C6.33281 14.7381 6.33281 15.5982 6.33114 16.4584C6.33031 16.8019 6.13285 16.9989 5.78927 16.9997C4.92888 17.0014 4.06891 17.0014 3.20852 16.9997C2.86745 16.9989 2.66874 16.7989 2.66707 16.4576C2.66498 16.0206 2.66665 15.5836 2.66665 15.1467V15.1462ZM5.31838 15.9926V14.3508H3.67649V15.9926H5.31838Z" fill="#006197"/>
<path d="M16.9985 16.0015C17.2736 16.0015 17.5283 16.0002 17.7834 16.0015C18.1119 16.0036 18.3294 16.2006 18.3315 16.4956C18.3336 16.7924 18.1169 16.9973 17.7921 16.9989C17.3688 17.001 16.9451 17.0019 16.5218 16.9989C16.2058 16.9964 16.0025 16.7936 16.0012 16.4777C15.9983 15.8254 15.9983 15.1726 16.0012 14.5203C16.0025 14.214 16.2154 13.9999 16.5038 14.002C16.7923 14.0041 16.996 14.2182 16.9977 14.5291C17.0006 15.0132 16.9985 15.4969 16.9985 16.0015Z" fill="#006197"/>
</svg>
