<svg width="18" height="18" viewBox="0 0 18 18" fill="none" xmlns="http://www.w3.org/2000/svg">
<path d="M16.418 1.05469H15.8906V0.527344C15.8906 0.236109 15.6545 0 15.3633 0C15.072 0 14.8359 0.236109 14.8359 0.527344V1.05469H12.6914V0.527344C12.6914 0.236109 12.4553 0 12.1641 0C11.8728 0 11.6367 0.236109 11.6367 0.527344V1.05469H9.52734V0.527344C9.52734 0.236109 9.29123 0 9 0C8.70877 0 8.47266 0.236109 8.47266 0.527344V1.05469H6.36328V0.527344C6.36328 0.236109 6.12717 0 5.83594 0C5.5447 0 5.30859 0.236109 5.30859 0.527344V1.05469H3.16406V0.527344C3.16406 0.236109 2.92795 0 2.63672 0C2.34548 0 2.10938 0.236109 2.10938 0.527344V1.05469H1.58203C0.709699 1.05469 0 1.76439 0 2.63672C0 3.28275 0 15.6924 0 16.418C0 17.2903 0.709699 18 1.58203 18H16.418C17.2903 18 18 17.2903 18 16.418C18 15.6922 18 3.28243 18 2.63672C18 1.76439 17.2903 1.05469 16.418 1.05469ZM16.9453 16.418C16.9453 16.7087 16.7087 16.9453 16.418 16.9453H1.58203C1.29125 16.9453 1.05469 16.7087 1.05469 16.418V5.27344H16.9453V16.418ZM16.9453 4.21875H1.05469V2.63672C1.05469 2.34594 1.29125 2.10938 1.58203 2.10938H2.10938V2.63672C2.10938 2.92795 2.34548 3.16406 2.63672 3.16406C2.92795 3.16406 3.16406 2.92795 3.16406 2.63672V2.10938H5.30859V2.63672C5.30859 2.92795 5.5447 3.16406 5.83594 3.16406C6.12717 3.16406 6.36328 2.92795 6.36328 2.63672V2.10938H8.47266V2.63672C8.47266 2.92795 8.70877 3.16406 9 3.16406C9.29123 3.16406 9.52734 2.92795 9.52734 2.63672V2.10938H11.6367V2.63672C11.6367 2.92795 11.8728 3.16406 12.1641 3.16406C12.4553 3.16406 12.6914 2.92795 12.6914 2.63672V2.10938H14.8359V2.63672C14.8359 2.92795 15.072 3.16406 15.3633 3.16406C15.6545 3.16406 15.8906 2.92795 15.8906 2.63672V2.10938H16.418C16.7087 2.10938 16.9453 2.34594 16.9453 2.63672V4.21875Z" fill="#006197"/>
<path d="M13.4648 14.8359H12.9375V13.2539C12.9375 12.3816 12.2278 11.6719 11.3555 11.6719H9.77344V10.4913C10.3872 10.2736 10.8281 9.68748 10.8281 9C10.8281 8.73204 10.7516 8.45895 10.673 8.32159L9.70376 6.62861C9.60979 6.4645 9.43516 6.36328 9.24609 6.36328C9.05702 6.36328 8.8824 6.4645 8.78843 6.62861L7.81917 8.32159C7.74186 8.4567 7.66406 8.72842 7.66406 9C7.66406 9.68748 8.10496 10.2736 8.71875 10.4913V11.6719H7.13672C6.26439 11.6719 5.55469 12.3816 5.55469 13.2539V14.8359H5.02734C4.73611 14.8359 4.5 15.072 4.5 15.3633C4.5 15.6545 4.73611 15.8906 5.02734 15.8906C5.30845 15.8906 13.0262 15.8906 13.4648 15.8906C13.7561 15.8906 13.9922 15.6545 13.9922 15.3633C13.9922 15.072 13.7561 14.8359 13.4648 14.8359ZM8.75194 8.81504L9.24609 7.95196L9.74025 8.81504C9.76229 8.87382 9.77344 8.93591 9.77344 9C9.77344 9.29078 9.53687 9.52734 9.24609 9.52734C8.95532 9.52734 8.71875 9.29078 8.71875 9C8.71875 8.93595 8.72989 8.87386 8.75194 8.81504ZM11.8828 14.8359H6.60938V13.2539C6.60938 12.9631 6.84594 12.7266 7.13672 12.7266H11.3555C11.6462 12.7266 11.8828 12.9631 11.8828 13.2539V14.8359Z" fill="#006197"/>
</svg>
