<svg width="28" height="28" viewBox="0 0 28 28" fill="none" xmlns="http://www.w3.org/2000/svg">
<g clip-path="url(#clip0_338_451)">
<path d="M16.9073 25.6396L16.9367 25.4926L17.2345 24.0022C17.4606 22.8711 18.0113 21.842 18.8269 21.0264L22.661 17.1922C23.0206 16.8327 23.4993 16.6344 24.0078 16.6344C24.5163 16.6344 24.995 16.8326 25.3546 17.1923C25.3546 17.1923 25.3546 17.1923 25.3546 17.1923M16.9073 25.6396L25.2839 17.263L25.3546 17.1923M16.9073 25.6396L17.0543 25.6102L18.5447 25.3123C19.6758 25.0863 20.7049 24.5356 21.5205 23.7199L25.3546 19.8859C25.7142 19.5263 25.9125 19.0476 25.9125 18.5391C25.9125 18.0305 25.7142 17.5518 25.3546 17.1923M16.9073 25.6396L25.3546 17.1923M15.8354 27.8807L15.8354 27.8807C15.7706 27.8937 15.7054 27.9 15.6406 27.9C15.3796 27.9 15.1261 27.7971 14.9379 27.609C14.703 27.374 14.601 27.0373 14.6662 26.7115L15.2855 23.6127C15.5889 22.0954 16.3274 20.7152 17.4215 19.6209L21.2556 15.7869C21.9909 15.0516 22.968 14.6469 24.0078 14.6469C25.0476 14.6469 26.0247 15.0516 26.76 15.7869C27.4953 16.5221 27.9 17.4992 27.9 18.5391C27.9 19.5789 27.4952 20.556 26.76 21.2913L22.9259 25.1253C21.8317 26.2195 20.4515 26.9581 18.9342 27.2613L15.8354 27.8807ZM13.0943 14.8876L13.1683 14.955L13.0943 14.8876C12.8982 15.1031 12.6293 15.2125 12.359 15.2125C12.1202 15.2125 11.8809 15.127 11.6904 14.9537C11.1763 14.4857 10.5076 14.2281 9.80815 14.2281H9.11367C8.41423 14.2281 7.74558 14.4857 7.2314 14.9537L7.2987 15.0276L7.23139 14.9537C6.8255 15.3231 6.19695 15.2935 5.82757 14.8876C5.45814 14.4817 5.48771 13.8532 5.89361 13.4838L5.8263 13.4099L5.89361 13.4838C6.77434 12.6821 7.91783 12.2406 9.11367 12.2406H9.8082C11.004 12.2406 12.1475 12.6821 13.0283 13.4838L13.0956 13.4099L13.0283 13.4838C13.4342 13.8532 13.4637 14.4817 13.0943 14.8876ZM11.2656 27.9H6.5625C2.99917 27.9 0.1 25.0008 0.1 21.4375V6.5625C0.1 2.99917 2.99917 0.1 6.5625 0.1H21.4375C25.0008 0.1 27.9 2.99917 27.9 6.5625V12.0312C27.9 12.5801 27.4551 13.025 26.9062 13.025C26.3574 13.025 25.9125 12.5801 25.9125 12.0312V6.5625C25.9125 4.0949 23.9051 2.0875 21.4375 2.0875H6.5625C4.0949 2.0875 2.0875 4.0949 2.0875 6.5625V21.4375C2.0875 23.9051 4.0949 25.9125 6.5625 25.9125H11.2656C11.8145 25.9125 12.2594 26.3574 12.2594 26.9062C12.2594 27.4551 11.8145 27.9 11.2656 27.9ZM9.46094 4.475C11.215 4.475 12.6422 5.9022 12.6422 7.65625C12.6422 9.4103 11.215 10.8375 9.46094 10.8375C7.70688 10.8375 6.27969 9.4103 6.27969 7.65625C6.27969 5.9022 7.70688 4.475 9.46094 4.475ZM9.46094 8.85C10.1193 8.85 10.6547 8.31457 10.6547 7.65625C10.6547 6.99793 10.1193 6.4625 9.46094 6.4625C8.80262 6.4625 8.26719 6.99793 8.26719 7.65625C8.26719 8.31457 8.80262 8.85 9.46094 8.85ZM22.5312 9.61563C23.0801 9.61563 23.525 10.0605 23.525 10.6094C23.525 11.1582 23.0801 11.6031 22.5312 11.6031H15.75C15.2011 11.6031 14.7563 11.1582 14.7563 10.6094C14.7563 10.0605 15.2011 9.61563 15.75 9.61563H22.5312ZM14.4375 17.2719C14.9864 17.2719 15.4312 17.7168 15.4312 18.2656C15.4312 18.8145 14.9864 19.2594 14.4375 19.2594H6.45312C5.90428 19.2594 5.45937 18.8145 5.45937 18.2656C5.45937 17.7168 5.90428 17.2719 6.45312 17.2719H14.4375ZM10.0625 21.1C10.6114 21.1 11.0562 21.5449 11.0562 22.0938C11.0562 22.6426 10.6114 23.0875 10.0625 23.0875H6.45312C5.90428 23.0875 5.45937 22.6426 5.45937 22.0938C5.45937 21.5449 5.90428 21.1 6.45312 21.1H10.0625ZM22.5312 7.775H15.75C15.2011 7.775 14.7563 7.3301 14.7563 6.78125C14.7563 6.2324 15.2011 5.7875 15.75 5.7875H22.5312C23.0801 5.7875 23.525 6.2324 23.525 6.78125C23.525 7.3301 23.0801 7.775 22.5312 7.775Z" fill="#3D86AF" stroke="#E8F2F6" stroke-width="0.2"/>
</g>
<defs>
<clipPath id="clip0_338_451">
<rect width="28" height="28" fill="white"/>
</clipPath>
</defs>
</svg>
