<svg width="14" height="14" viewBox="0 0 14 14" fill="none" xmlns="http://www.w3.org/2000/svg">
<g id="ic_email">
<g id="Group 19021">
<path id="Path 29416" d="M11.2428 2.84991C10.1176 1.72468 8.59141 1.09253 7.00009 1.09253C5.40877 1.09253 3.88262 1.72468 2.75739 2.84991C1.63215 3.97515 1 5.5013 1 7.09262C1 8.68394 1.63215 10.2101 2.75739 11.3353C3.31328 11.8942 3.97449 12.3372 4.70274 12.6388C5.431 12.9405 6.21185 13.0947 7.00009 13.0925C7.09335 13.0925 7.18279 13.0555 7.24874 12.9895C7.31469 12.9236 7.35173 12.8341 7.35173 12.7409C7.35173 12.6476 7.31469 12.5582 7.24874 12.4922C7.18279 12.4263 7.09335 12.3892 7.00009 12.3892C5.95252 12.3892 4.92848 12.0786 4.05746 11.4966C3.18644 10.9146 2.50756 10.0874 2.10667 9.11954C1.70578 8.15171 1.60089 7.08674 1.80526 6.0593C2.00963 5.03186 2.51409 4.0881 3.25483 3.34736C3.99557 2.60662 4.93933 2.10216 5.96677 1.89779C6.99421 1.69342 8.05918 1.79831 9.02701 2.1992C9.99483 2.60009 10.8221 3.27897 11.404 4.14999C11.986 5.02101 12.2967 6.04505 12.2967 7.09262V8.50129C12.2967 8.7826 12.1849 9.05238 11.986 9.2513C11.7871 9.45021 11.5173 9.56196 11.236 9.56196C10.9547 9.56196 10.6849 9.45021 10.486 9.2513C10.2871 9.05238 10.1753 8.7826 10.1753 8.50129V7.09262C10.176 6.33763 9.90788 5.60706 9.41899 5.03173C8.93011 4.4564 8.25239 4.07388 7.50719 3.95268C6.76199 3.83148 5.99799 3.97951 5.35198 4.37026C4.70597 4.76101 4.22015 5.36896 3.98152 6.08524C3.74289 6.80153 3.76703 7.57937 4.04962 8.27948C4.33221 8.97959 4.85479 9.55625 5.52378 9.90619C6.19278 10.2561 6.96449 10.3565 7.70074 10.1893C8.43699 10.0221 9.08969 9.59834 9.54195 8.9938C9.65967 9.40258 9.92119 9.75504 10.2783 9.98619C10.6354 10.2174 11.064 10.3116 11.4852 10.2516C11.9063 10.1917 12.2916 9.98146 12.57 9.6598C12.8484 9.33813 13.0011 8.92668 13 8.50129V7.09262C13.0022 6.30437 12.848 5.52351 12.5464 4.79524C12.2448 4.06698 11.8017 3.40577 11.2428 2.84991ZM7.00009 9.56562C6.51098 9.56562 6.03285 9.42058 5.62616 9.14884C5.21948 8.8771 4.90251 8.49087 4.71534 8.03899C4.52816 7.58711 4.47919 7.08987 4.57461 6.61016C4.67003 6.13045 4.90556 5.6898 5.25142 5.34394C5.59727 4.99809 6.03792 4.76256 6.51763 4.66714C6.99735 4.57172 7.49458 4.62069 7.94646 4.80787C8.39834 4.99504 8.78457 5.31201 9.05631 5.71869C9.32805 6.12538 9.47309 6.60351 9.47309 7.09262C9.47253 7.74833 9.21181 8.37702 8.74815 8.84068C8.28449 9.30434 7.6558 9.56506 7.00009 9.56562Z" fill="#006197" stroke="#006197" stroke-width="0.262902"/>
</g>
</g>
</svg>
