<svg width="17" height="17" viewBox="0 0 17 17" fill="none" xmlns="http://www.w3.org/2000/svg">
<g id="ic_facebook">
<path id="Vector" d="M14.3186 0H2.5268C1.13129 0 0 1.13129 0 2.5268V14.3186C0 15.7141 1.13129 16.8454 2.5268 16.8454H14.3186C15.7141 16.8454 16.8454 15.7141 16.8454 14.3186V2.5268C16.8454 1.13129 15.7141 0 14.3186 0Z" fill="#1877F2"/>
<path id="Vector_2" d="M11.6996 10.8574L12.0747 8.42269H9.73874V6.84343C9.73874 6.17883 10.0645 5.52739 11.1107 5.52739H12.1734V3.45462C12.1734 3.45462 11.2094 3.29012 10.2882 3.29012C8.36347 3.29012 7.10665 4.45481 7.10665 6.56706V8.42269H4.96808V10.8574H7.10665V16.8454H9.73874V10.8574H11.6996Z" fill="white"/>
</g>
</svg>
