<svg width="16" height="17" viewBox="0 0 16 17" fill="none" xmlns="http://www.w3.org/2000/svg">
<g id="ic_google">
<path id="Vector" d="M15.8036 7.30323H15.1608V7.27012H7.97938V10.4619H12.4889C11.831 12.3199 10.0632 13.6536 7.97938 13.6536C5.33541 13.6536 3.19175 11.51 3.19175 8.86599C3.19175 6.22203 5.33541 4.07836 7.97938 4.07836C9.19983 4.07836 10.3102 4.53877 11.1556 5.29083L13.4125 3.03386C11.9874 1.7057 10.0812 0.886612 7.97938 0.886612C3.57277 0.886612 0 4.45938 0 8.86599C0 13.2726 3.57277 16.8454 7.97938 16.8454C12.386 16.8454 15.9588 13.2726 15.9588 8.86599C15.9588 8.33098 15.9037 7.80873 15.8036 7.30323Z" fill="#FFC107"/>
<path id="Vector_2" d="M0.920044 5.15201L3.54167 7.07464C4.25104 5.31838 5.969 4.07838 7.9794 4.07838C9.19985 4.07838 10.3102 4.53879 11.1556 5.29085L13.4126 3.03388C11.9874 1.70571 10.0812 0.886627 7.9794 0.886627C4.91452 0.886627 2.25659 2.61696 0.920044 5.15201Z" fill="#FF3D00"/>
<path id="Vector_3" d="M7.97935 16.8454C10.0404 16.8454 11.9132 16.0566 13.3291 14.7739L10.8595 12.6841C10.0584 13.291 9.06255 13.6536 7.97935 13.6536C5.90391 13.6536 4.14166 12.3303 3.47778 10.4834L0.875702 12.4882C2.19629 15.0724 4.87816 16.8454 7.97935 16.8454Z" fill="#4CAF50"/>
<path id="Vector_4" d="M15.8036 7.30326H15.1608V7.27014H7.97937V10.4619H12.4889C12.1729 11.3544 11.5988 12.124 10.8583 12.6846C10.8587 12.6842 10.8591 12.6842 10.8595 12.6838L13.3291 14.7736C13.1544 14.9323 15.9588 12.8557 15.9588 8.86602C15.9588 8.331 15.9037 7.80875 15.8036 7.30326Z" fill="#1976D2"/>
</g>
</svg>
