<svg width="16" height="22" viewBox="0 0 16 22" fill="none" xmlns="http://www.w3.org/2000/svg">
<path d="M1.21284 19.2913V21.3537C1.21284 21.5465 1.36773 21.7029 1.55877 21.7029C1.7498 21.7029 1.90469 21.5465 1.90469 21.3537V19.2913C1.90469 17.6855 3.19217 16.386 4.78333 16.386C5.53618 16.386 6.21925 15.9989 6.61062 15.3505C6.70998 15.1858 6.65831 14.971 6.49512 14.8707C6.33198 14.7704 6.11915 14.8226 6.01974 14.9873C5.75502 15.4259 5.29283 15.6878 4.78333 15.6878C2.80997 15.6877 1.21284 17.2995 1.21284 19.2913ZM7.24945 15.7916C7.20876 15.98 7.32711 16.166 7.51378 16.207C8.42416 16.4072 9.35006 16.2068 10.0873 15.6989C10.8171 16.4883 11.7812 16.386 11.6522 16.386C13.2432 16.386 14.5308 17.6854 14.5308 19.2913V21.3537C14.5308 21.5465 14.6857 21.7029 14.8767 21.7029C15.0678 21.7029 15.2227 21.5465 15.2227 21.3537V19.2913C15.2227 17.2997 13.6258 15.6878 11.6523 15.6878C10.854 15.6878 10.2068 15.0386 10.2068 14.2327V14.1407C11.7167 13.412 12.7765 11.8807 12.8411 10.0976C13.4625 9.9468 13.9254 9.38547 13.9254 8.71762V6.90765C13.9443 6.02172 13.814 3.80283 12.2111 2.24333C10.2317 0.31758 7.05755 0.439908 4.72352 1.57395C4.49604 1.68458 4.46149 1.99479 4.65041 2.15543C3.468 2.44652 2.44839 3.18015 1.79335 4.23009C1.75953 4.28416 1.69761 4.36904 1.71379 4.50446C1.72382 4.58874 1.74868 4.66005 1.81302 4.72595C2.23461 5.15748 2.46677 5.72932 2.46677 6.33616V8.71771C2.46677 8.91052 2.62166 9.06684 2.81269 9.06684C3.00373 9.06684 3.15862 8.91052 3.15862 8.71771V6.33616C3.15862 5.63628 2.9217 4.97196 2.48657 4.4383C3.14979 3.48097 4.18453 2.86527 5.35479 2.7388L5.96279 2.67307C6.31831 2.63467 6.38806 2.14033 6.05766 2.00308L5.78114 1.88817C9.38245 0.621023 13.2336 2.02896 13.2336 6.90386V8.71762C13.2336 8.99466 13.0756 9.23543 12.8445 9.35636V7.09296C12.8445 5.74538 11.7582 4.64901 10.423 4.64901H6.01252C4.67734 4.64901 3.59106 5.74529 3.59106 7.09283V9.95151C3.59106 12.9879 6.53088 15.2942 9.52233 14.4053C9.54179 14.6544 9.60323 14.8948 9.70334 15.1182C9.12141 15.5216 8.38654 15.6843 7.6611 15.5247C7.47443 15.4837 7.29014 15.6032 7.24945 15.7916ZM8.21777 13.8964C6.04806 13.8964 4.28291 12.1148 4.28291 9.92498V7.09283C4.28291 6.13035 5.05881 5.34728 6.01252 5.34728H10.423C11.3767 5.34728 12.1526 6.13039 12.1526 7.09296V9.92498C12.1526 12.1148 10.3875 13.8964 8.21777 13.8964Z" fill="#3D86AF" stroke="#3D86AF" stroke-width="0.445974"/>
</svg>
