<svg width="140" height="116" viewBox="0 0 140 116" fill="none" xmlns="http://www.w3.org/2000/svg">
<path d="M19.7559 116H18.977V111.595C18.977 111.263 18.977 110.837 19.0257 110.316C18.9283 110.6 18.8796 110.837 18.8309 110.932L16.5429 115.953H16.1534L13.8654 110.979C13.8167 110.837 13.7193 110.6 13.6707 110.316C13.7193 110.6 13.7193 111.026 13.7193 111.595V115.953H12.9404V109.416H13.9627L16.0074 113.963C16.1534 114.295 16.2508 114.579 16.2995 114.768H16.3482C16.4942 114.389 16.5916 114.153 16.6889 113.963L18.7823 109.416H19.7559V116Z" fill="#4DC9F5"/>
<path d="M37.573 113.49L36.502 110.695C36.4533 110.601 36.4533 110.459 36.4047 110.269C36.356 110.459 36.356 110.601 36.3073 110.695L35.285 113.49H37.573ZM39.4229 116H38.5467L37.8164 114.153H34.9442L34.2626 116H33.4351L36.0152 109.464H36.8428L39.4229 116Z" fill="#4DC9F5"/>
<path d="M53.8815 110.174V112.543H54.9525C55.1472 112.543 55.3419 112.495 55.488 112.448C55.634 112.401 55.78 112.306 55.9261 112.211C56.0721 112.116 56.1695 111.974 56.2182 111.832C56.2669 111.69 56.3155 111.501 56.3155 111.311C56.3155 110.98 56.2182 110.695 55.9748 110.506C55.7314 110.316 55.3906 110.222 54.9525 110.222H53.8815V110.174ZM57.9221 116H56.9971L55.8774 114.153C55.7801 113.964 55.6827 113.822 55.5853 113.727C55.488 113.585 55.3906 113.49 55.2932 113.443C55.1959 113.348 55.0985 113.301 54.9525 113.253C54.8551 113.206 54.709 113.206 54.563 113.206H53.8815V116H53.1025V109.464H55.0985C55.3906 109.464 55.6827 109.511 55.9261 109.559C56.1695 109.653 56.4129 109.748 56.559 109.89C56.7537 110.032 56.8997 110.222 56.9971 110.459C57.0945 110.695 57.1431 110.932 57.1431 111.216C57.1431 111.453 57.0945 111.643 57.0458 111.832C56.9971 112.022 56.851 112.211 56.7537 112.353C56.6076 112.495 56.4616 112.637 56.3155 112.732C56.1208 112.827 55.9261 112.922 55.6827 112.969C55.78 113.016 55.8774 113.064 55.9748 113.158C56.0721 113.206 56.1208 113.301 56.2182 113.395C56.2669 113.49 56.3642 113.585 56.4616 113.679C56.5103 113.774 56.6076 113.916 56.705 114.058L57.9221 116Z" fill="#4DC9F5"/>
<path d="M75.4967 110.174H73.5494V116H72.7705V110.174H70.8232V109.464H75.4967V110.174Z" fill="#4DC9F5"/>
<path d="M90.6856 109.464V110.127H90.0041V115.337H90.6856V116H88.5923V115.337H89.2252V110.127H88.5923V109.464H90.6856Z" fill="#4DC9F5"/>
<path d="M107.821 113.49L106.75 110.695C106.701 110.601 106.701 110.459 106.653 110.269C106.604 110.459 106.604 110.601 106.555 110.695L105.533 113.49H107.821ZM109.671 116H108.795L108.064 114.153H105.192L104.511 116H103.634L106.214 109.464H107.042L109.671 116Z" fill="#4DC9F5"/>
<path d="M126.856 116H123.351V109.464H124.129V115.29H126.856V116Z" fill="#4DC9F5"/>
<path fill-rule="evenodd" clip-rule="evenodd" d="M131.724 97.9059C138.685 94.685 141.655 86.538 138.344 79.7646L103.196 7.76798C99.8857 0.994618 91.5124 -1.89472 84.5509 1.32618C77.5894 4.54708 74.6198 12.6941 77.9302 19.4674L113.079 91.4641C116.389 98.2374 124.811 101.127 131.724 97.9059Z" fill="#4DC9F5"/>
<path fill-rule="evenodd" clip-rule="evenodd" d="M90.5393 97.9059C97.5008 94.685 100.47 86.538 97.16 79.7647L62.0117 7.76806C59.6263 2.84197 54.5633 0 49.3057 0C44.048 0 38.9851 2.84197 36.5997 7.76806L1.35399 79.812C-1.95638 86.5854 1.01321 94.7324 7.97473 97.9533C14.9362 101.174 23.3095 98.2849 26.6199 91.5115L49.257 45.1874L71.8941 91.5115C75.2045 98.2375 83.5778 101.127 90.5393 97.9059Z" fill="#006197"/>
</svg>
