<svg width="44" height="44" viewBox="0 0 44 44" fill="none" xmlns="http://www.w3.org/2000/svg">
<rect width="44" height="44" rx="6" fill="#E8F2F6"/>
<path d="M23.8681 9C24.191 9.12798 24.5459 9.20753 24.8334 9.3874C25.6035 9.86473 25.9549 10.5842 25.9655 11.4662C25.9726 11.9608 25.9655 12.452 25.9655 12.9743C26.072 12.9777 26.1607 12.9881 26.253 12.9881C27.0764 12.9881 27.9033 12.9881 28.7266 12.9881C28.8189 12.9881 28.9183 12.9881 29.007 13.0123C29.2022 13.0538 29.2945 13.1887 29.2945 13.3755C29.2945 13.5519 29.2093 13.6868 29.0247 13.7283C28.9005 13.756 28.7692 13.7629 28.6414 13.7629C24.1556 13.7629 19.6697 13.7629 15.1802 13.7629C15.095 13.7629 15.0099 13.7629 14.9211 13.7629C14.5449 13.7768 14.3072 13.9947 14.3072 14.3648C14.3036 16.3917 14.3072 18.4186 14.3072 20.4455C14.3072 20.4767 14.3178 20.5078 14.3285 20.5666C14.4278 20.5666 14.5201 20.5666 14.6088 20.5666C15.8545 20.5666 17.1002 20.5666 18.3494 20.5666C19.2473 20.5666 19.9003 21.0405 20.1133 21.8291C20.3901 22.8633 19.6874 23.8733 18.5979 23.9183C17.3451 23.9702 16.0887 23.9425 14.836 23.9459C14.6727 23.9459 14.513 23.9459 14.3285 23.9459C14.3285 24.1812 14.2965 24.4025 14.3356 24.6066C14.3817 24.8453 14.5627 24.9975 14.8182 25.032C14.9282 25.0493 15.0418 25.0459 15.1518 25.0459C20.926 25.0459 26.7037 25.0459 32.4779 25.0459C32.6447 25.0459 32.8257 25.032 32.9783 24.9732C33.1806 24.8971 33.2941 24.7207 33.3048 24.4994C33.3083 24.4164 33.3119 24.3333 33.3119 24.2469C33.3119 21.0128 33.3119 17.7787 33.3119 14.5481C33.3119 13.9359 33.1309 13.7595 32.4992 13.7595C31.9491 13.7595 31.399 13.7733 30.8489 13.7491C30.6963 13.7422 30.5011 13.6695 30.4088 13.5588C30.2243 13.3375 30.3982 13.002 30.7069 12.995C31.4274 12.9777 32.1514 12.9605 32.8718 13.0123C33.5142 13.0573 33.9436 13.4966 34.0749 14.1123C34.082 14.1503 34.1069 14.1884 34.1246 14.223V24.5755C34.0962 24.6619 34.0714 24.7484 34.043 24.8349C33.8478 25.454 33.3083 25.8172 32.5631 25.8207C30.4763 25.8207 28.3859 25.8207 26.2991 25.8207C26.1998 25.8207 26.0968 25.8207 25.962 25.8207V26.1354C25.962 28.1624 25.962 30.1893 25.962 32.2162C25.962 33.1882 25.5503 33.9457 24.6737 34.4368C24.294 34.6478 23.8787 34.7308 23.4387 34.7274C19.8116 34.7239 16.1846 34.7274 12.5575 34.7274C11.0812 34.7274 10.0271 33.7104 10.0094 32.2681C10.0023 31.5659 10.0094 30.8603 10.0094 30.1581C10.0094 25.3088 10.0094 20.4594 10.0094 15.6065C10.0094 15.5235 10.0058 15.437 10.0094 15.354C10.0307 15.1015 10.1868 14.9459 10.4104 14.9493C10.634 14.9528 10.7795 15.1084 10.8008 15.3679C10.8079 15.4509 10.8008 15.5339 10.8008 15.6204C10.8008 21.1408 10.8008 26.6612 10.7972 32.1816C10.7972 32.7938 10.9818 33.2988 11.4964 33.6655C11.7909 33.8765 12.1245 33.9768 12.483 33.9768C16.1526 33.9768 19.8223 33.9837 23.4919 33.9768C24.4324 33.9768 25.1528 33.2815 25.1599 32.3753C25.1741 30.2308 25.1635 28.0863 25.1635 25.9417C25.1635 25.9175 25.1564 25.8933 25.1528 25.8449H24.6205V26.1078C24.6205 27.1385 24.6205 28.1693 24.6205 29.2C24.6205 29.29 24.6205 29.3833 24.6027 29.4733C24.5637 29.6739 24.4217 29.7811 24.223 29.7811C24.0207 29.7811 23.8823 29.6704 23.8468 29.4698C23.829 29.3799 23.829 29.2865 23.829 29.1966C23.829 28.1762 23.829 27.1524 23.829 26.132V25.8241C23.6977 25.8241 23.5913 25.8241 23.4812 25.8241C20.6882 25.8241 17.8952 25.8241 15.1021 25.8241C14.6159 25.8241 14.1865 25.7031 13.8564 25.333C13.6151 25.0597 13.5157 24.738 13.5157 24.3818C13.5157 21.0647 13.5122 17.7476 13.5157 14.4305C13.5157 13.5658 14.1226 12.9881 15.0134 12.9847C17.8313 12.9847 20.6527 12.9847 23.4706 12.9847C23.5806 12.9847 23.6906 12.9847 23.8184 12.9847C23.8184 12.4139 23.829 11.8709 23.8149 11.3278C23.8113 11.1376 23.6516 11.0581 23.4706 11.0581C22.8282 11.0546 22.1823 11.0581 21.5187 11.0581C21.4406 11.2725 21.3661 11.4835 21.288 11.691C21.1531 12.0508 20.9437 12.2064 20.5569 12.2064C18.8392 12.2064 17.1179 12.2064 15.4002 12.2064C15.0276 12.2064 14.8147 12.0473 14.6834 11.7049C14.6053 11.4939 14.5804 11.1964 14.4278 11.0996C14.2575 10.9889 13.9629 11.0615 13.7251 11.0581C13.3454 11.0581 12.9692 11.0581 12.5895 11.0581C12.2488 11.0581 12.1423 11.1584 12.1423 11.4904C12.1423 13.1749 12.1423 14.8594 12.1423 16.5404C12.1423 21.7322 12.1423 26.9275 12.1423 32.1193C12.1423 32.6036 12.2062 32.6693 12.703 32.6693C16.2272 32.6693 19.7513 32.6693 23.2754 32.6693C23.7545 32.6693 23.8255 32.6001 23.8255 32.1332C23.8255 31.8323 23.8184 31.5313 23.8255 31.2269C23.8326 30.9468 23.9781 30.7911 24.2159 30.7877C24.4537 30.7842 24.6098 30.9399 24.6169 31.2166C24.6276 31.5936 24.6347 31.9706 24.6169 32.3476C24.585 33.0014 24.1165 33.4234 23.4387 33.4234C19.8045 33.4234 16.1668 33.4234 12.5327 33.4234C11.8335 33.4234 11.3686 32.9841 11.3473 32.3027C11.3473 32.2508 11.3473 32.2024 11.3473 32.1505C11.3473 25.2915 11.3473 18.429 11.3544 11.57C11.3544 11.314 11.4219 11.0338 11.5425 10.8056C11.7235 10.4666 12.0571 10.304 12.4617 10.304C13.1396 10.304 13.821 10.304 14.4988 10.304C14.8466 10.304 15.0595 10.4527 15.1838 10.7675C15.2689 10.9854 15.2902 11.3036 15.4499 11.397C15.638 11.5112 15.9468 11.4385 16.2059 11.4385C17.5722 11.4385 18.9386 11.4385 20.3049 11.442C20.4859 11.442 20.5711 11.3936 20.6314 11.2172C20.9508 10.2936 20.9579 10.2971 21.9587 10.2971C22.4485 10.2971 22.9383 10.2971 23.428 10.2971C24.1414 10.2971 24.6098 10.7364 24.6205 11.4351C24.6276 11.9366 24.6205 12.4382 24.6205 12.957H25.1457C25.1457 12.3206 25.2025 11.691 25.1315 11.0719C25.0428 10.304 24.3188 9.7575 23.4954 9.74367C22.8247 9.73329 22.1539 9.74367 21.4832 9.74367C18.5091 9.74367 15.5351 9.74367 12.5611 9.74367C11.6916 9.74367 11.0315 10.2314 10.8398 11.0131C10.8043 11.1653 10.8008 11.3278 10.8008 11.487C10.7972 12.1303 10.8114 12.7771 10.7901 13.4205C10.7866 13.5692 10.7085 13.7629 10.5985 13.8494C10.3465 14.0431 10.02 13.839 10.0094 13.4897C9.99517 13.0469 9.99872 12.6007 10.0094 12.158C10.02 11.7325 9.98452 11.2933 10.0768 10.8816C10.3039 9.90623 10.9534 9.29055 11.9684 9.04842C12.0181 9.03805 12.0642 9.01729 12.1104 9C16.032 9 19.95 9 23.8681 9ZM14.332 21.3483V23.1746C15.7587 23.1746 17.1641 23.185 18.573 23.1677C18.9386 23.1608 19.2118 22.9359 19.3361 22.5831C19.5738 21.919 19.1231 21.3414 18.3494 21.3379C17.086 21.331 15.8226 21.3379 14.5627 21.3379C14.4882 21.3379 14.4136 21.3483 14.332 21.3518V21.3483Z" fill="#006197"/>
<path d="M17.9945 27.3389C18.7326 27.3389 19.4744 27.2974 20.2055 27.3493C20.9649 27.4046 21.4653 28.0134 21.4618 28.7536C21.4618 29.4869 20.9614 30.0576 20.2197 30.1545C19.9322 30.1925 19.6376 30.1925 19.3466 30.1925C18.2748 30.196 17.1995 30.196 16.1277 30.1925C15.3576 30.1925 14.8039 29.8397 14.591 29.2379C14.2432 28.2452 14.9423 27.3251 16.0603 27.3113C16.7026 27.3009 17.3485 27.3113 17.9909 27.3113C17.9909 27.3216 17.9909 27.332 17.9909 27.3389H17.9945ZM17.9803 29.4177C18.6581 29.4177 19.336 29.4281 20.0138 29.4177C20.4184 29.4108 20.6881 29.1203 20.6775 28.7363C20.6704 28.3697 20.3936 28.093 19.9996 28.093C18.6581 28.086 17.3202 28.086 15.9786 28.093C15.535 28.093 15.2617 28.3939 15.2937 28.8263C15.3185 29.1652 15.5812 29.4143 15.9644 29.4212C16.6352 29.4316 17.3024 29.4212 17.9732 29.4212L17.9803 29.4177Z" fill="#4DC9F5"/>
<path d="M18.1579 14.9463C18.6477 14.9463 19.1374 14.9463 19.6272 14.9463C20.1773 14.9497 20.447 15.2161 20.4541 15.7522C20.4576 16.3471 20.4576 16.9386 20.4541 17.5336C20.4505 18.0524 20.1737 18.3291 19.6449 18.3326C18.6477 18.3395 17.6539 18.3395 16.6567 18.3326C16.1243 18.3326 15.8475 18.0558 15.844 17.537C15.8404 16.9421 15.8404 16.3506 15.844 15.7557C15.8475 15.2161 16.1172 14.9532 16.6673 14.9463C17.1642 14.9463 17.6646 14.9463 18.1614 14.9463H18.1579ZM16.6496 17.5405H19.6307V15.7384H16.6496V17.5405Z" fill="#4DC9F5"/>
<path d="M29.6884 23.7625C29.589 23.8628 29.5074 24.0219 29.3902 24.053C29.2696 24.0876 29.1063 24.0115 28.9715 23.9596C28.9218 23.9389 28.8969 23.8524 28.8721 23.7901C28.7514 23.5157 28.5338 23.3785 28.2191 23.3785C28.1765 23.3785 28.1339 23.382 28.0913 23.3785C27.6796 23.3232 27.346 23.3682 27.2502 23.8697C27.2112 24.0703 26.9556 24.1395 26.7605 24.0703C26.5759 24.0046 26.4659 23.7936 26.5404 23.5964C26.9095 22.6349 27.2751 21.6733 27.669 20.7221C27.7222 20.5907 27.9316 20.4488 28.0736 20.4454C28.2155 20.4419 28.4391 20.5734 28.4924 20.7013C28.8898 21.6595 29.2554 22.6314 29.6316 23.5999C29.6458 23.638 29.6422 23.6829 29.6493 23.7244C29.6635 23.7383 29.6777 23.7521 29.6919 23.7659L29.6884 23.7625ZM27.7542 22.6141H28.4107C28.3043 22.3409 28.2049 22.0814 28.0842 21.7667C27.9636 22.078 27.8642 22.327 27.7542 22.6141Z" fill="#4DC9F5"/>
<path d="M25.1392 22.8182C25.1392 23.1157 25.1463 23.3751 25.1392 23.6345C25.1321 23.9355 24.9901 24.0842 24.7382 24.0807C24.4897 24.0773 24.3513 23.9216 24.3478 23.6207C24.3478 22.7075 24.3442 21.7944 24.3478 20.8847C24.3478 20.5699 24.5039 20.4177 24.8233 20.4212C25.1569 20.4212 25.4941 20.4143 25.8241 20.4662C26.4701 20.563 26.8533 21.0922 26.8072 21.7598C26.7682 22.3271 26.2713 22.7871 25.6644 22.8217C25.5047 22.8286 25.3415 22.8217 25.1392 22.8217V22.8182ZM25.1569 22.0607C25.4657 22.0607 25.7993 22.1541 25.9661 21.829C26.0264 21.7079 26.0087 21.4865 25.9306 21.3759C25.7425 21.1026 25.4338 21.2064 25.1569 21.2064V22.0642V22.0607Z" fill="#4DC9F5"/>
<path d="M30.6856 21.5282C30.895 21.2169 31.0759 20.9402 31.2605 20.6704C31.4273 20.4283 31.6438 20.3695 31.8461 20.5009C32.0413 20.6289 32.0697 20.8399 31.9171 21.0751C31.807 21.2446 31.7112 21.4279 31.5799 21.5766C31.154 22.0609 30.9908 22.6143 31.0759 23.2438C31.0937 23.3822 31.083 23.5275 31.0759 23.6693C31.0618 23.9252 30.9127 24.0774 30.6856 24.0809C30.4513 24.0809 30.2987 23.9391 30.2881 23.6797C30.2774 23.313 30.3023 22.9429 30.281 22.5763C30.2739 22.4275 30.2242 22.265 30.1461 22.137C29.9332 21.7842 29.6883 21.4487 29.4612 21.1062C29.2837 20.8364 29.3015 20.6289 29.5109 20.4905C29.7238 20.3522 29.9296 20.4179 30.1106 20.6808C30.2952 20.9506 30.4762 21.2238 30.682 21.5248L30.6856 21.5282Z" fill="#4DC9F5"/>
<path d="M30.1602 16.5785C30.1495 16.6892 30.1531 16.8172 30.1247 16.9383C30.0821 17.1216 29.9366 17.2253 29.7521 17.2219C29.5533 17.2184 29.3972 17.1112 29.3794 16.9071C29.3581 16.6685 29.3617 16.4229 29.3794 16.1842C29.3936 15.9801 29.5391 15.8764 29.745 15.8695C29.9508 15.8625 30.0892 15.9698 30.1318 16.1669C30.1566 16.2949 30.1531 16.4333 30.1602 16.5785Z" fill="#4DC9F5"/>
<path d="M27.218 16.5539C27.218 16.6611 27.2251 16.7718 27.218 16.879C27.1967 17.0969 27.0512 17.2145 26.8418 17.218C26.6324 17.2214 26.4727 17.1038 26.4549 16.8894C26.4336 16.6576 26.4336 16.419 26.4549 16.1872C26.4727 15.9728 26.6253 15.8586 26.8418 15.8655C27.0583 15.869 27.1967 15.9831 27.218 16.201C27.2286 16.3186 27.218 16.4363 27.218 16.5504V16.5539Z" fill="#4DC9F5"/>
<path d="M23.7616 16.5269C23.7616 16.6445 23.7722 16.7621 23.7616 16.8762C23.7403 17.0872 23.5664 17.2394 23.3605 17.2221C23.1512 17.2013 23.0021 17.0976 22.995 16.8728C22.9879 16.6548 22.9844 16.4369 22.995 16.2225C23.0056 16.0011 23.1618 15.8662 23.3783 15.8662C23.5912 15.8662 23.7438 16.008 23.7616 16.2259C23.7687 16.3262 23.7616 16.4266 23.7616 16.5269Z" fill="#4DC9F5"/>
<path d="M24.9973 16.5267C24.9973 16.4194 24.9902 16.3087 24.9973 16.2015C25.015 15.994 25.1428 15.8833 25.3486 15.8695C25.5545 15.8556 25.7213 15.9525 25.7461 16.1496C25.7781 16.4021 25.7781 16.6685 25.7532 16.921C25.7319 17.1181 25.5687 17.2288 25.3664 17.2184C25.157 17.2081 25.0115 17.0974 24.9973 16.876C24.9902 16.7584 24.9973 16.6408 24.9973 16.5267Z" fill="#4DC9F5"/>
<path d="M30.7453 16.5131C30.7453 16.4059 30.7275 16.2917 30.7453 16.188C30.7843 15.9804 30.9192 15.8628 31.1392 15.8663C31.3557 15.8732 31.4977 15.9873 31.5083 16.2053C31.519 16.4301 31.519 16.6549 31.5083 16.8797C31.4941 17.1011 31.3415 17.2118 31.1321 17.2153C30.9298 17.2187 30.7879 17.1046 30.7488 16.9109C30.724 16.7829 30.7346 16.6445 30.7275 16.5131C30.7311 16.5131 30.7382 16.5131 30.7417 16.5131H30.7453Z" fill="#4DC9F5"/>
<path d="M27.7542 22.614C27.8642 22.3304 27.9635 22.0779 28.0842 21.7666L27.7542 22.614Z" fill="#006197"/>
</svg>
