<svg width="22" height="22" viewBox="0 0 22 22" fill="none" xmlns="http://www.w3.org/2000/svg">
<rect x="0.286865" y="0.325684" width="21.4845" height="21.4845" rx="5.60465" fill="#E8F2F6"/>
<path d="M17.0514 8.99594L8.10893 3.44125C7.46196 3.03988 6.67976 3.02319 6.0165 3.39661C5.35324 3.76996 4.95728 4.45 4.95728 5.21557V16.2744C4.95728 17.4319 5.88287 18.3787 7.02049 18.385C7.02359 18.385 7.0267 18.385 7.02974 18.385C7.38525 18.385 7.75573 18.2727 8.10174 18.06C8.3801 17.8888 8.46808 17.5227 8.29825 17.2422C8.12842 16.9617 7.76504 16.8731 7.48677 17.0442C7.32493 17.1437 7.16687 17.1952 7.02684 17.1951C6.59761 17.1928 6.13804 16.8223 6.13804 16.2744V5.2156C6.13804 4.88719 6.3079 4.59554 6.59238 4.43537C6.87689 4.2752 7.21238 4.28235 7.48955 4.45432L16.432 10.009C16.7008 10.1758 16.8546 10.4538 16.854 10.7719C16.8533 11.09 16.6984 11.3674 16.4281 11.5336L9.96269 15.5227C9.68459 15.6943 9.59718 16.0606 9.76745 16.3408C9.9377 16.621 10.3012 16.7091 10.5793 16.5375L17.0439 12.5488C17.6629 12.1683 18.0333 11.505 18.0348 10.7743C18.0363 10.0437 17.6685 9.3788 17.0514 8.99594Z" fill="#006197" stroke="#006197" stroke-width="0.373643"/>
</svg>
