<svg width="12" height="17" viewBox="0 0 12 17" fill="none" xmlns="http://www.w3.org/2000/svg">
<path d="M10.3513 16.5865H1.54027C1.15109 16.5859 0.778023 16.431 0.502831 16.1558C0.227638 15.8807 0.0727628 15.5076 0.0721436 15.1184V8.26561C0.0725563 7.8763 0.227341 7.50304 0.502555 7.22767C0.77777 6.95231 1.15095 6.79733 1.54027 6.79671H10.3513C10.7405 6.79733 11.1136 6.95221 11.3888 7.2274C11.664 7.50259 11.8188 7.87565 11.8195 8.26483V15.1176C11.8191 15.5069 11.6643 15.8802 11.3891 16.1556C11.1138 16.4309 10.7407 16.5859 10.3513 16.5865ZM1.54027 7.77546C1.41054 7.77567 1.28619 7.82729 1.19445 7.91902C1.10272 8.01075 1.0511 8.13511 1.05089 8.26483V15.1176C1.0511 15.2474 1.10272 15.3717 1.19445 15.4634C1.28619 15.5552 1.41054 15.6068 1.54027 15.607H10.3513C10.4811 15.6068 10.6054 15.5552 10.6972 15.4634C10.7889 15.3717 10.8405 15.2474 10.8407 15.1176V8.26483C10.8405 8.13511 10.7889 8.01075 10.6972 7.91902C10.6054 7.82729 10.4811 7.77567 10.3513 7.77546H1.54027Z" fill="#006197"/>
<path d="M9.37263 7.77546C9.30836 7.77546 9.24473 7.7628 9.18535 7.73821C9.12598 7.71362 9.07203 7.67757 9.02659 7.63213C8.98115 7.58668 8.9451 7.53274 8.92051 7.47336C8.89591 7.41399 8.88326 7.35035 8.88326 7.28609V4.83844C8.88326 4.45274 8.80729 4.07082 8.65969 3.71448C8.51209 3.35815 8.29575 3.03437 8.02302 2.76164C7.75029 2.48892 7.42652 2.27258 7.07018 2.12498C6.71385 1.97738 6.33193 1.90141 5.94623 1.90141C5.56054 1.90141 5.17862 1.97738 4.82228 2.12498C4.46594 2.27258 4.14217 2.48892 3.86944 2.76164C3.59671 3.03437 3.38037 3.35815 3.23277 3.71448C3.08517 4.07082 3.00921 4.45274 3.00921 4.83844V7.28609C3.00921 7.41588 2.95765 7.54035 2.86587 7.63213C2.7741 7.7239 2.64962 7.77546 2.51983 7.77546C2.39004 7.77546 2.26557 7.7239 2.17379 7.63213C2.08202 7.54035 2.03046 7.41588 2.03046 7.28609V4.83844C2.03046 3.79991 2.44301 2.80391 3.17736 2.06956C3.91171 1.33521 4.9077 0.922661 5.94623 0.922661C6.98476 0.922661 7.98075 1.33521 8.7151 2.06956C9.44945 2.80391 9.86201 3.79991 9.86201 4.83844V7.28609C9.86201 7.41588 9.81045 7.54035 9.71867 7.63213C9.62689 7.7239 9.50242 7.77546 9.37263 7.77546Z" fill="#006197"/>
<path d="M5.94547 12.0183C5.68737 12.0183 5.43506 11.9417 5.22045 11.7983C5.00585 11.6549 4.83858 11.4511 4.73981 11.2127C4.64104 10.9742 4.61519 10.7118 4.66555 10.4587C4.7159 10.2055 4.84019 9.97301 5.0227 9.7905C5.20521 9.60799 5.43773 9.48371 5.69088 9.43335C5.94402 9.383 6.20641 9.40884 6.44487 9.50761C6.68333 9.60639 6.88714 9.77365 7.03054 9.98826C7.17393 10.2029 7.25047 10.4552 7.25047 10.7133C7.25006 11.0593 7.11243 11.3909 6.86779 11.6356C6.62314 11.8802 6.29145 12.0179 5.94547 12.0183ZM5.94547 10.3862C5.88094 10.3862 5.81787 10.4054 5.76422 10.4412C5.71056 10.4771 5.66875 10.528 5.64406 10.5876C5.61936 10.6473 5.6129 10.7129 5.62549 10.7761C5.63808 10.8394 5.66915 10.8976 5.71478 10.9432C5.7604 10.9888 5.81854 11.0199 5.88182 11.0325C5.94511 11.0451 6.01071 11.0386 6.07032 11.0139C6.12994 10.9892 6.18089 10.9474 6.21674 10.8937C6.25259 10.8401 6.27172 10.777 6.27172 10.7125C6.27151 10.626 6.23707 10.5432 6.17594 10.482C6.1148 10.4209 6.03193 10.3865 5.94547 10.3862Z" fill="#006197"/>
<path d="M5.94619 13.9727C5.8164 13.9727 5.69193 13.9211 5.60015 13.8293C5.50838 13.7375 5.45682 13.6131 5.45682 13.4833V11.6881C5.45682 11.5583 5.50838 11.4339 5.60015 11.3421C5.69193 11.2503 5.8164 11.1988 5.94619 11.1988C6.07598 11.1988 6.20046 11.2503 6.29223 11.3421C6.38401 11.4339 6.43557 11.5583 6.43557 11.6881V13.4833C6.43557 13.6131 6.38401 13.7375 6.29223 13.8293C6.20046 13.9211 6.07598 13.9727 5.94619 13.9727Z" fill="#006197"/>
</svg>
