<svg width="61" height="61" viewBox="0 0 61 61" fill="none" xmlns="http://www.w3.org/2000/svg">
<g id="ic_success">
<g id="ic_zeeshan">
<rect id="Felids" width="61" height="61" rx="30.5" fill="#E43535"/>
<g id="Group">
<path id="Vector" d="M13.6916 24.7545C12.972 24.0819 12.9352 22.954 13.6073 22.2339C14.2793 21.5137 15.3989 21.4674 16.1285 22.149C18.0585 23.9614 20.0401 22.2926 20.2598 22.0967C20.9158 21.509 21.887 21.4959 22.5555 22.0261C22.6344 22.0878 22.7092 22.1585 22.7787 22.2362C23.4353 22.97 23.3729 24.0973 22.6392 24.7545C21.0577 26.1704 17.1728 28.0107 13.6916 24.7545ZM47.4191 22.2149C48.0756 22.9486 48.0133 24.076 47.2795 24.7332C45.6986 26.149 41.8131 27.9888 38.3325 24.7332C37.613 24.0605 37.5762 22.9326 38.2476 22.2125C38.9191 21.4924 40.0399 21.4461 40.7689 22.1276C42.6989 23.94 44.6805 22.2713 44.9002 22.0753C45.5562 21.4876 46.5274 21.4746 47.1958 22.0047C47.2742 22.0664 47.3484 22.1377 47.4191 22.2149ZM44.7559 40.7946C45.1465 41.6975 44.7316 42.7459 43.8286 43.1366C42.9257 43.5284 41.8784 43.1122 41.4878 42.2093C39.7698 38.2383 35.7115 35.6713 31.1451 35.6713C26.4748 35.6713 22.391 38.2359 20.743 42.2057C20.4587 42.889 19.7955 43.304 19.098 43.304C18.8706 43.304 18.6391 43.26 18.4159 43.1674C17.5076 42.7893 17.0772 41.7468 17.4542 40.8391C19.6566 35.536 25.031 32.11 31.1457 32.11C37.1327 32.11 42.4757 35.5187 44.7559 40.7946Z" fill="#FAFAFA"/>
</g>
</g>
</g>
</svg>
