<svg width="62" height="63" viewBox="0 0 62 63" fill="none" xmlns="http://www.w3.org/2000/svg">
<g id="ic_success">
<rect id="Felids" y="0.842422" width="61.2848" height="61.2848" rx="30.6424" fill="#4CAF50"/>
<path id="Vector" d="M44.5562 21.9088C44.426 22.085 44.3218 22.2885 44.162 22.4328C41.1611 25.1299 38.5983 28.2027 36.1692 31.3873C32.9351 35.6275 30.0005 40.0624 27.2566 44.6202C27.1435 44.808 26.9399 44.9442 26.7783 45.1042H26.483C26.332 44.9471 26.1491 44.8097 26.0361 44.6295C23.9834 41.3625 21.6917 38.2556 19.4153 35.1388C19.0092 34.5829 18.5943 34.0328 18.1859 33.4775C17.9184 33.1141 17.9367 32.8747 18.2593 32.5605C18.7826 32.0504 19.3093 31.5444 19.8361 31.0378C20.2191 30.6697 20.4179 30.6546 20.8666 30.9613C22.689 32.2064 24.5108 33.4526 26.3326 34.6983C26.3889 34.7365 26.4463 34.7731 26.5226 34.8229C26.9198 34.3401 27.3098 33.8589 27.7082 33.3836C31.0263 29.4211 34.6587 25.7705 38.8433 22.6722C39.4157 22.2485 40.0087 21.8509 40.6107 21.4689C40.7882 21.3564 41.0268 21.2915 41.2398 21.2863C42.0661 21.2654 42.8936 21.2921 43.7192 21.2718C44.1377 21.2613 44.4236 21.3929 44.5568 21.7923V21.9082L44.5562 21.9088Z" fill="white"/>
</g>
</svg>
