<svg width="33" height="33" viewBox="0 0 33 33" fill="none" xmlns="http://www.w3.org/2000/svg">
<path d="M24.8747 14.7608L25.0134 14.6768C25.1368 14.5922 25.2197 14.4665 25.2444 14.3266C25.2691 14.1866 25.2337 14.0432 25.1457 13.9269C25.0577 13.8105 24.9241 13.7303 24.7731 13.7033C24.6221 13.6762 24.4656 13.7044 24.3367 13.7819C15.0903 19.7421 8.35864 14.0741 8.07578 13.8316C7.96082 13.7374 7.81059 13.6882 7.65694 13.6943C7.50328 13.7005 7.35825 13.7615 7.25258 13.8646C7.1469 13.9676 7.08888 14.1045 7.0908 14.2463C7.09271 14.3881 7.15442 14.5236 7.26285 14.6242C7.27553 14.6352 7.48629 14.8134 7.87057 15.0757L6.68287 16.8764C6.60161 17 6.57683 17.1484 6.61396 17.2888C6.65108 17.4293 6.74709 17.5505 6.88095 17.6259C6.974 17.6776 7.08051 17.7051 7.18917 17.7055C7.29063 17.7053 7.39036 17.6812 7.47885 17.6354C7.56734 17.5896 7.64164 17.5237 7.69467 17.444L8.85306 15.6842C9.63756 16.1222 10.4662 16.4892 11.3275 16.7799L10.757 18.539C10.7344 18.6075 10.7267 18.6794 10.7344 18.7507C10.7421 18.8219 10.765 18.8911 10.8018 18.9541C10.8387 19.0171 10.8887 19.0728 10.949 19.1179C11.0093 19.163 11.0787 19.1967 11.1532 19.2169L11.3235 19.2403C11.4505 19.2397 11.574 19.2016 11.6757 19.1315C11.7774 19.0614 11.852 18.9631 11.8885 18.8509L12.4534 17.116C13.4476 17.3646 14.4696 17.5067 15.4991 17.5397V19.2827C15.4991 19.4272 15.5614 19.5658 15.6722 19.668C15.7831 19.7702 15.9334 19.8276 16.0902 19.8276C16.2469 19.8276 16.3973 19.7702 16.5081 19.668C16.619 19.5658 16.6813 19.4272 16.6813 19.2827V17.5294C17.7157 17.4741 18.7402 17.3124 19.7357 17.0473L20.463 18.8166C20.5059 18.9201 20.582 19.0091 20.681 19.0719C20.7801 19.1346 20.8975 19.1682 21.0177 19.168L21.2268 19.1336C21.2995 19.1083 21.366 19.0701 21.4226 19.021C21.4792 18.972 21.5248 18.9132 21.5567 18.8479C21.5886 18.7827 21.6063 18.7123 21.6087 18.6407C21.6111 18.5691 21.5982 18.4978 21.5707 18.4309L20.8624 16.7069C21.9104 16.3457 22.9186 15.8929 23.8732 15.3547L24.8311 16.5338C24.8865 16.6018 24.9583 16.657 25.0408 16.6951C25.1233 16.7331 25.2143 16.7529 25.3065 16.7529C25.4345 16.7534 25.559 16.7149 25.6607 16.6433C25.723 16.6005 25.7755 16.5467 25.8152 16.4852C25.8549 16.4236 25.8811 16.3554 25.8922 16.2845C25.9033 16.2136 25.8992 16.1414 25.88 16.072C25.8608 16.0025 25.8269 15.9373 25.7803 15.8799L24.8747 14.7608Z" fill="#ADADAD"/>
</svg>
