<svg width="13" height="15" viewBox="0 0 13 15" fill="none" xmlns="http://www.w3.org/2000/svg">
<g id="ic_username">
<g id="ic_user">
<path id="Path 29395" d="M6.17718 7.22562C6.65307 7.23271 7.12541 7.14282 7.56535 6.96146C8.00529 6.78009 8.40361 6.51105 8.73596 6.17077C9.07663 5.83878 9.34597 5.44092 9.52754 5.00147C9.70911 4.56202 9.7991 4.09022 9.792 3.61487C9.7991 3.13952 9.70911 2.66771 9.52754 2.22826C9.34597 1.78882 9.07663 1.39095 8.73596 1.05897C8.39999 0.723242 8.00108 0.456922 7.56204 0.275222C7.123 0.0935213 6.65242 0 6.17718 0C5.70195 0 5.23137 0.0935213 4.79233 0.275222C4.35328 0.456922 3.95439 0.723242 3.61841 1.05897C3.27774 1.39095 3.00839 1.78882 2.82682 2.22826C2.64525 2.66771 2.55527 3.13952 2.56237 3.61487C2.55527 4.09022 2.64525 4.56202 2.82682 5.00147C3.00839 5.44092 3.27774 5.83878 3.61841 6.17077C3.9508 6.511 4.34912 6.78001 4.78905 6.96137C5.22899 7.14273 5.70131 7.23264 6.17718 7.22562ZM4.24147 1.67711C4.49567 1.423 4.79751 1.22142 5.12974 1.08389C5.46197 0.946362 5.81808 0.875573 6.17771 0.875573C6.53734 0.875573 6.89345 0.946362 7.22568 1.08389C7.55791 1.22142 7.85975 1.423 8.11395 1.67711C8.37388 1.92677 8.57935 2.2274 8.71746 2.56013C8.85558 2.89286 8.92336 3.25051 8.91654 3.61065C8.92336 3.97078 8.85558 4.32843 8.71746 4.66117C8.57935 4.9939 8.37388 5.29453 8.11395 5.54419C7.85975 5.79829 7.55791 5.99987 7.22568 6.1374C6.89345 6.27493 6.53734 6.34572 6.17771 6.34572C5.81808 6.34572 5.46197 6.27493 5.12974 6.1374C4.79751 5.99987 4.49567 5.79829 4.24147 5.54419C3.98148 5.29456 3.77598 4.99394 3.63787 4.6612C3.49975 4.32846 3.432 3.97079 3.43888 3.61065C3.432 3.25051 3.49975 2.89283 3.63787 2.56009C3.77598 2.22735 3.98148 1.92673 4.24147 1.67711Z" fill="#006197"/>
<path id="Path 29396" d="M12.5092 11.5368C12.4857 11.2185 12.4452 10.9015 12.3877 10.5875C12.3307 10.2663 12.2528 9.94915 12.1543 9.63812C12.0544 9.32897 11.9228 9.03096 11.7615 8.74888C11.6028 8.4649 11.4036 8.20551 11.1701 7.97884C10.9256 7.74818 10.6387 7.56694 10.3253 7.44509C9.97905 7.3118 9.61069 7.24522 9.23966 7.24889C9.02328 7.272 8.8186 7.35862 8.65145 7.49782C8.47509 7.6128 8.26917 7.74572 8.03895 7.89234C7.79003 8.04099 7.52364 8.15826 7.24587 8.24149C6.61612 8.45034 5.93567 8.45034 5.30593 8.24149C5.02847 8.15829 4.76243 8.04101 4.5139 7.89234C4.28579 7.74677 4.07987 7.61386 3.90034 7.49782C3.73323 7.35856 3.52853 7.27194 3.31213 7.24889C2.93966 7.24277 2.56944 7.30757 2.22124 7.43981C1.90591 7.56101 1.61719 7.74229 1.37113 7.97356C1.13767 8.20024 0.938452 8.45963 0.779751 8.7436C0.618505 9.02571 0.486858 9.32371 0.386905 9.63284C0.288495 9.94388 0.210534 10.261 0.153521 10.5822C0.0959627 10.8963 0.0554222 11.2132 0.0320765 11.5316C0.0120118 11.8185 0.00250747 12.116 0.00250747 12.4176C-0.0131387 12.766 0.0445702 13.1138 0.171904 13.4385C0.299238 13.7632 0.493364 14.0576 0.741733 14.3027C1.26142 14.7769 1.94772 15.0268 2.65105 14.9978H9.88913C10.5925 15.0268 11.2788 14.7769 11.7984 14.3027C12.047 14.0575 12.2412 13.7629 12.3686 13.438C12.4959 13.1131 12.5535 12.7651 12.5377 12.4166C12.5377 12.1139 12.5271 11.8164 12.507 11.5305L12.5092 11.5368ZM11.1912 13.6719C11.0148 13.8295 10.809 13.9507 10.5855 14.0285C10.362 14.1064 10.1254 14.1393 9.88913 14.1254H2.65422C2.41796 14.1393 2.18129 14.1064 1.95783 14.0285C1.73437 13.9507 1.52852 13.8295 1.35212 13.6719C1.19042 13.5086 1.06514 13.313 0.984507 13.0979C0.903877 12.8829 0.869726 12.6532 0.884298 12.424C0.884298 12.1423 0.893803 11.8649 0.911755 11.598C0.931576 11.3115 0.966828 11.0263 1.01736 10.7436C1.06705 10.4581 1.13548 10.1762 1.22223 9.89972C1.30267 9.64828 1.40883 9.40579 1.53904 9.17609C1.65576 8.96622 1.80232 8.77436 1.97413 8.60648C2.13825 8.45387 2.33049 8.33457 2.54016 8.25521C2.7618 8.17031 2.99664 8.12496 3.23398 8.12124C3.26461 8.13812 3.31952 8.16872 3.40823 8.22673C3.58881 8.34488 3.7979 8.47884 4.02812 8.62652C4.33984 8.81548 4.67404 8.96468 5.02291 9.07062C5.82843 9.33605 6.69801 9.33605 7.50354 9.07062C7.85275 8.96471 8.18731 8.81552 8.49938 8.62652C8.73593 8.47567 8.93869 8.34487 9.11928 8.22778C9.20798 8.16976 9.2629 8.13813 9.29352 8.1223C9.53086 8.12605 9.7657 8.17139 9.98734 8.25627C10.1966 8.3358 10.3885 8.45508 10.5523 8.60753C10.7242 8.77535 10.8708 8.96724 10.9874 9.17715C11.1176 9.40647 11.2238 9.64861 11.3042 9.89972C11.3914 10.1762 11.4602 10.4581 11.5101 10.7436C11.5605 11.0263 11.5958 11.3115 11.6157 11.598C11.6348 11.8639 11.6443 12.1413 11.6443 12.4229C11.6588 12.6521 11.6247 12.8818 11.5441 13.0969C11.4634 13.312 11.3381 13.5075 11.1764 13.6708L11.1912 13.6719Z" fill="#006197"/>
</g>
</g>
</svg>
