<svg width="32" height="27" viewBox="0 0 32 27" fill="none" xmlns="http://www.w3.org/2000/svg">
<path d="M0.982422 17.9371C1.042 17.8387 1.1106 17.7439 1.15995 17.6407C3.08025 13.6343 5.00355 9.62912 6.91542 5.61851C7.36255 4.68067 8.04798 4.01703 9.01325 3.63301C9.82927 3.3084 10.6381 2.96458 11.4577 2.64896C11.7652 2.53016 11.9873 2.35195 12.1323 2.05673C12.2418 1.83352 12.3808 1.62471 12.5072 1.4099C12.8075 0.902275 13.2576 0.644262 13.8438 0.642462C15.5258 0.637061 17.2084 0.636461 18.8903 0.642462C19.4632 0.644862 19.9086 0.896275 20.2071 1.3913C20.2125 1.3997 20.2185 1.4081 20.2215 1.4171C20.5386 2.27874 21.2108 2.70417 22.0515 2.96938C22.6395 3.15539 23.2015 3.4242 23.7744 3.65701C24.6861 4.02723 25.3505 4.65967 25.7736 5.54351C27.7228 9.61412 29.6719 13.6853 31.6187 17.7577C31.8576 18.2582 31.7571 18.5558 31.2637 18.8114C30.0137 19.4594 28.762 20.1038 27.5091 20.7471C27.0102 21.0033 26.6768 20.8911 26.4403 20.3853C25.4853 18.3464 24.5333 16.3069 23.5795 14.2674C23.5548 14.2139 23.5265 14.1623 23.4723 14.0549C23.4525 14.1731 23.4338 14.2416 23.4308 14.3106C23.3779 15.4464 23.3315 16.5829 23.2738 17.7187C23.2449 18.2912 23.1961 18.8624 23.1594 19.4348C23.1546 19.5128 23.1414 19.6106 23.1793 19.6688C23.5656 20.2599 23.5301 20.9607 23.621 21.6021C23.686 21.8925 23.7191 22.192 23.7474 22.489C23.7787 22.8226 23.633 23.0242 23.3616 23.0608C23.1053 23.095 22.8982 22.9066 22.8513 22.5922C22.749 21.9027 22.6491 21.2127 22.5456 20.5233C22.5342 20.4453 22.5083 20.3697 22.486 20.2791H21.3173C21.4919 20.4573 21.6363 20.5989 21.7747 20.7465C22.0762 21.0675 22.0792 21.3771 21.7747 21.6945C21.5117 21.9687 21.2403 22.2346 20.9677 22.4992C20.6187 22.8376 20.2949 22.8376 19.9513 22.4992C19.5312 22.0851 19.1232 21.6585 18.6942 21.2547C18.4775 21.0507 18.235 20.8701 17.9853 20.7063C17.7421 20.5467 17.5183 20.5053 17.1771 20.5917C16.5843 20.7417 15.9344 20.8011 15.3314 20.5137C15.2971 20.4975 15.261 20.4741 15.2255 20.4747C14.9511 20.4777 14.4642 20.8725 14.3998 21.1509C14.0526 22.6642 13.7078 24.1775 13.3636 25.6913C13.3575 25.7183 13.366 25.7489 13.3684 25.7999H23.3177C23.2707 25.4765 23.2268 25.1633 23.1799 24.8501C23.1353 24.5549 23.2689 24.3293 23.5229 24.2777C23.8033 24.2201 24.0176 24.3641 24.0753 24.6833C24.1554 25.1243 24.2216 25.5677 24.2745 26.0123C24.3172 26.37 24.0747 26.5656 23.8099 26.7378H8.91034C8.55589 26.5242 8.39581 26.2542 8.47104 25.8053C8.68527 24.5291 8.82729 23.2408 9.04875 21.9663C9.18415 21.1905 9.12217 20.3673 9.54944 19.6508C9.58494 19.5908 9.56629 19.4936 9.56147 19.415C9.52476 18.8528 9.47542 18.2918 9.44774 17.7295C9.40019 16.7635 9.3671 15.7968 9.32557 14.8302C9.31534 14.5896 9.29428 14.3496 9.27803 14.1089C9.17633 14.2025 9.12759 14.2974 9.08245 14.3946C8.15931 16.3705 7.23738 18.347 6.31424 20.3229C6.03922 20.9115 5.7293 21.0141 5.14256 20.7117C3.92696 20.0852 2.70774 19.4648 1.49996 18.8234C1.30257 18.7172 1.15453 18.5144 0.982422 18.3566C0.982422 18.2168 0.982422 18.0769 0.982422 17.9377V17.9371ZM15.4734 17.2891C15.9867 17.2891 16.476 17.2693 16.9622 17.2999C17.1349 17.3107 17.3359 17.4067 17.4587 17.5291C17.5845 17.6545 17.6916 17.7055 17.8643 17.7049C19.2659 17.6989 20.6674 17.7019 22.069 17.7007C22.1653 17.7007 22.2615 17.6923 22.3657 17.6875C22.4078 16.7749 22.4529 15.8892 22.489 15.0036C22.5937 12.4223 22.6942 9.84093 22.7977 7.2596C22.8116 6.91518 22.9885 6.72077 23.2738 6.72737C23.5626 6.73397 23.7227 6.93318 23.7082 7.2866C23.6493 8.76147 23.5837 10.2363 23.5313 11.7118C23.5253 11.8726 23.559 12.0502 23.6264 12.196C24.3991 13.8689 25.182 15.5376 25.9619 17.2075C26.3742 18.0907 26.7852 18.9746 27.2088 19.8836C28.3968 19.2704 29.563 18.6674 30.7443 18.0577C30.692 17.9425 30.6534 17.8531 30.6113 17.7655C30.1901 16.8847 29.7688 16.0044 29.3476 15.1236C27.8985 12.0958 26.4458 9.06989 25.0039 6.03854C24.6476 5.2891 24.112 4.75447 23.3303 4.45986C22.9006 4.29845 22.4806 4.11184 22.0551 3.93963C21.6339 3.76862 21.2108 3.60121 20.7775 3.4278C20.7342 3.53341 20.7041 3.60601 20.6752 3.67922C19.8568 5.73192 19.0336 7.78342 18.2218 9.83853C17.611 11.3848 17.0158 12.9365 16.4134 14.4864C16.2888 14.8074 16.0523 14.9502 15.799 14.8578C15.5312 14.7606 15.4397 14.5158 15.5492 14.1881C15.5685 14.1317 15.5884 14.0753 15.61 14.0195C17.0134 10.4644 18.4035 6.90378 19.8376 3.3612C20.0446 2.84997 19.8586 2.54936 19.5643 2.14674C17.6055 7.3622 15.3007 12.3923 13.638 17.7025C13.8197 17.7025 13.9407 17.6905 14.0586 17.7049C14.3035 17.7349 14.4444 17.6623 14.4979 17.3983C14.5575 17.1073 14.661 16.8247 14.7519 16.5403C14.8566 16.2133 15.0816 16.0722 15.3555 16.1538C15.6148 16.2313 15.7207 16.4887 15.6239 16.8187C15.5763 16.9807 15.5216 17.1409 15.474 17.2903L15.4734 17.2891ZM10.3558 17.7007C11.1081 17.7007 11.8272 17.7073 12.5457 17.6911C12.6197 17.6893 12.7257 17.5639 12.7582 17.4745C13.4803 15.4614 14.1916 13.4447 14.915 11.4322C14.9908 11.2204 14.9932 11.0434 14.9095 10.8352C14.188 9.04409 13.4761 7.2494 12.7606 5.45531C12.4928 4.78327 12.2238 4.11244 11.9476 3.4224C11.0978 3.76922 10.2842 4.12384 9.45375 4.43525C8.6281 4.74487 8.07266 5.2969 7.69714 6.08774C6.06149 9.53491 4.40658 12.9725 2.75829 16.4137C2.50133 16.9507 2.24437 17.4877 1.97416 18.0529C3.16149 18.6656 4.32835 19.2686 5.50484 19.8758C5.54576 19.802 5.57765 19.7522 5.60233 19.6994C6.77822 17.1817 7.95531 14.6646 9.12217 12.1426C9.18837 11.9992 9.19499 11.8162 9.18897 11.653C9.13541 10.1877 9.07042 8.72307 9.01385 7.2578C9.00121 6.92718 9.1673 6.73457 9.44774 6.72677C9.72396 6.71897 9.91051 6.90618 9.92375 7.2278C10.008 9.2709 10.0874 11.314 10.1711 13.3571C10.2295 14.7912 10.292 16.2253 10.3546 17.7013L10.3558 17.7007ZM13.1409 2.14554C13.05 2.29315 13.0031 2.39275 12.9351 2.47495C12.7196 2.73537 12.7431 2.98618 12.8701 3.2922C13.3918 4.55166 13.8853 5.82312 14.3902 7.08979C14.7537 8.00123 15.119 8.91268 15.5101 9.89193C15.5847 9.71612 15.6221 9.59432 15.684 9.48631C15.867 9.16709 15.8519 8.86468 15.6937 8.53046C15.4812 8.08164 15.2941 7.61721 15.1454 7.14379C15.0955 6.98478 15.1454 6.74237 15.2447 6.60796C15.3145 6.51376 15.5637 6.48076 15.6985 6.52516C15.823 6.56596 15.9278 6.73337 15.9946 6.86778C16.1263 7.13419 16.2256 7.4168 16.3665 7.76182C16.9941 6.18314 17.5881 4.68967 18.1899 3.17759H14.5437C14.5882 3.2982 14.6195 3.39 14.6556 3.48061C14.8169 3.88743 15.0028 4.28705 15.1298 4.70467C15.1767 4.85827 15.1364 5.09349 15.0401 5.21829C14.9637 5.3173 14.7206 5.3683 14.5912 5.3251C14.4576 5.2801 14.3312 5.11149 14.2716 4.96808C13.8907 4.04943 13.5296 3.12239 13.1403 2.14494L13.1409 2.14554ZM10.7103 25.8065C10.9197 24.8681 11.09 23.9374 11.344 23.0296C11.4962 22.4848 11.4691 22.0887 10.9877 21.7161C10.602 21.4173 10.6369 21.0699 10.9793 20.7159C11.1105 20.5803 11.2441 20.4471 11.4246 20.2641C11.0557 20.2641 10.7747 20.2821 10.4966 20.2587C10.2481 20.2377 10.1976 20.3583 10.1693 20.5653C10.064 21.3339 9.94421 22.1007 9.83167 22.8688C9.68905 23.8414 9.54763 24.8147 9.4032 25.8071H10.7103V25.8065ZM18.8061 1.57551H13.904C13.9515 1.70632 13.9996 1.80592 14.0237 1.91093C14.0863 2.18814 14.2458 2.26614 14.5316 2.26134C15.672 2.24274 16.813 2.25354 17.954 2.25354C18.376 2.25354 18.6561 2.05513 18.7941 1.65831C18.8001 1.64031 18.8001 1.62051 18.8061 1.57551ZM12.2719 21.7251C12.429 21.5649 12.568 21.4233 12.707 21.2817C13.3714 20.6037 14.0249 19.9118 14.9619 19.5926C15.0161 19.574 15.0714 19.478 15.0768 19.4144C15.0925 19.2296 15.0823 19.0424 15.0823 18.8318C13.6175 19.1834 12.7353 20.2497 11.7706 21.2313C11.9433 21.4011 12.092 21.5481 12.2719 21.7251ZM17.6422 18.83C17.6422 19.025 17.6188 19.1888 17.6507 19.3406C17.6717 19.4426 17.75 19.5776 17.8378 19.6142C18.4571 19.8722 18.9927 20.2431 19.4584 20.7219C19.7846 21.0573 20.118 21.3855 20.4074 21.6759C20.6066 21.5139 20.7806 21.3723 20.9599 21.2259C19.973 20.2431 19.101 19.1768 17.6422 18.8294V18.83ZM11.6569 25.7777C12.3423 25.9235 12.3899 25.8935 12.5265 25.2671C12.5542 25.1405 12.5872 25.0157 12.6155 24.8897C12.8238 23.9614 13.0314 23.0326 13.2486 22.0629C12.9808 22.2958 12.7455 22.4926 12.5198 22.7002C12.4278 22.7848 12.314 22.8814 12.2839 22.9924C12.1678 23.4142 12.0805 23.8438 11.9855 24.2711C11.8741 24.7733 11.7658 25.2761 11.6569 25.7777ZM10.487 19.346C11.0888 19.346 11.6852 19.3466 12.2815 19.3442C12.3189 19.3442 12.364 19.3298 12.3929 19.307C12.6691 19.0868 12.9435 18.8636 13.2444 18.6194H10.487V19.346ZM22.2405 18.6266H19.4825C19.7395 18.8306 19.9633 19.0112 20.1914 19.187C20.2684 19.2464 20.3545 19.3364 20.4381 19.3382C21.0345 19.3514 21.6315 19.3454 22.2399 19.3454V18.6266H22.2405ZM16.0192 18.2216V19.7234H16.7179V18.2216H16.0192Z" fill="#006197"/>
<path d="M10.4861 19.3463V18.6196H13.2435C12.9426 18.8638 12.6688 19.0871 12.3919 19.3073C12.3631 19.3301 12.3185 19.3445 12.2806 19.3445C11.6842 19.3469 11.0879 19.3463 10.4861 19.3463Z" fill="white"/>
<path d="M22.2403 18.627V19.3458C21.6313 19.3458 21.0349 19.3518 20.4385 19.3386C20.3549 19.3368 20.2688 19.2468 20.1918 19.1874C19.9637 19.0116 19.7399 18.8304 19.4829 18.627H22.2409H22.2403Z" fill="white"/>
<path d="M27.6088 18.9353C27.5059 18.8315 27.3103 18.7223 27.2802 18.5789C27.2495 18.4313 27.3308 18.1679 27.4487 18.0983C28.0132 17.7647 28.6023 17.47 29.1927 17.1814C29.422 17.0692 29.6711 17.1814 29.7764 17.3956C29.8823 17.6104 29.8173 17.8619 29.5874 17.9855C29.0356 18.2831 28.4747 18.5645 27.9151 18.8483C27.8465 18.8831 27.7646 18.8921 27.6088 18.9353Z" fill="#006197"/>
<path d="M5.48254 18.3735C5.48254 18.7743 5.14975 19.0083 4.84645 18.8643C4.26212 18.5865 3.68922 18.2835 3.12113 17.9739C2.89967 17.8533 2.84912 17.6367 2.94481 17.4045C3.03508 17.186 3.29444 17.0678 3.52252 17.1782C4.11347 17.4645 4.69781 17.7669 5.27191 18.0855C5.38384 18.1479 5.43981 18.3117 5.48254 18.3735Z" fill="#006197"/>
</svg>
