<svg width="33" height="33" viewBox="0 0 33 33" fill="none" xmlns="http://www.w3.org/2000/svg">
<path d="M17.875 24.65H6.875C6.48522 24.65 6.16818 24.5205 5.94884 24.3012C5.72949 24.0818 5.6 23.7648 5.6 23.375C5.6 22.9852 5.72949 22.6682 5.94884 22.4488C6.16818 22.2295 6.48522 22.1 6.875 22.1H17.875C18.2648 22.1 18.5818 22.2295 18.8012 22.4488C19.0205 22.6682 19.15 22.9852 19.15 23.375C19.15 23.7648 19.0205 24.0818 18.8012 24.3012C18.5818 24.5205 18.2648 24.65 17.875 24.65Z" fill="black" stroke="white" stroke-width="0.2"/>
<path d="M26.125 17.775H6.875C6.48522 17.775 6.16818 17.6455 5.94884 17.4262C5.72949 17.2068 5.6 16.8898 5.6 16.5C5.6 16.1102 5.72949 15.7932 5.94884 15.5738C6.16818 15.3545 6.48522 15.225 6.875 15.225H26.125C26.5148 15.225 26.8318 15.3545 27.0512 15.5738C27.2705 15.7932 27.4 16.1102 27.4 16.5C27.4 16.8898 27.2705 17.2068 27.0512 17.4262C26.8318 17.6455 26.5148 17.775 26.125 17.775Z" fill="black" stroke="white" stroke-width="0.2"/>
<path d="M26.125 10.9H15.125C14.7352 10.9 14.4182 10.7705 14.1988 10.5512C13.9795 10.3318 13.85 10.0148 13.85 9.625C13.85 9.23522 13.9795 8.91818 14.1988 8.69884C14.4182 8.47949 14.7352 8.35 15.125 8.35H26.125C26.5148 8.35 26.8318 8.47949 27.0512 8.69884C27.2705 8.91818 27.4 9.23522 27.4 9.625C27.4 10.0148 27.2705 10.3318 27.0512 10.5512C26.8318 10.7705 26.5148 10.9 26.125 10.9Z" fill="black" stroke="white" stroke-width="0.2"/>
</svg>
