<svg width="23" height="25" viewBox="0 0 23 25" fill="none" xmlns="http://www.w3.org/2000/svg">
<path d="M11.107 0C11.372 0 11.6375 0 11.9025 0C11.923 0.0126948 11.9424 0.0346666 11.9638 0.0375962C13.3263 0.224601 14.4911 1.53705 14.2833 3.09314C14.2604 3.2655 14.3242 3.32214 14.4756 3.39C17.7367 4.84503 19.5077 7.32247 19.701 10.8433C19.7588 11.898 19.7134 12.9585 19.7144 14.0161C19.7149 14.5859 19.7115 15.1552 19.7159 15.725C19.7184 16.0057 19.822 16.1019 20.101 16.1224C20.2739 16.1351 20.4492 16.1459 20.6186 16.18C22.152 16.4876 23.1459 17.8074 22.9825 19.3117C22.829 20.7238 21.5721 21.7745 20.0343 21.7755C18.5099 21.776 16.9854 21.7755 15.4605 21.7755C15.3708 21.7755 15.2817 21.7755 15.195 21.7755C15.1726 21.8688 15.1536 21.9396 15.1382 22.0113C14.8228 23.4805 13.9261 24.4287 12.4725 24.8755C12.3175 24.9233 12.1581 24.9585 12.0012 25H11.0068C10.971 24.9839 10.9361 24.96 10.8982 24.9526C9.39921 24.6592 8.42278 23.7886 7.95001 22.3683C7.88724 22.1788 7.85686 21.9791 7.80953 21.776C7.70441 21.776 7.61375 21.776 7.52358 21.776C5.94137 21.776 4.35916 21.7858 2.77696 21.7721C1.05675 21.757 -0.29131 20.0959 0.0544241 18.4402C0.324435 17.1483 1.42391 16.2225 2.80336 16.1263C3.23328 16.0965 3.29406 16.0326 3.29406 15.6068C3.29406 14.0854 3.28559 12.564 3.29904 11.043C3.30353 10.5489 3.31897 10.047 3.40914 9.56262C3.95265 6.64427 5.64097 4.60822 8.40136 3.42858C8.65045 3.32214 8.74411 3.23083 8.72019 2.94666C8.63899 1.97697 9.0196 1.19038 9.78629 0.577614C10.1749 0.266103 10.6362 0.124507 11.107 0ZM11.506 20.1633C14.2978 20.1633 17.0891 20.1633 19.8808 20.1633C19.98 20.1633 20.0801 20.1662 20.1787 20.1579C20.8084 20.1052 21.2882 19.6648 21.3485 19.0867C21.4107 18.4905 21.0316 17.9641 20.4079 17.7986C20.2659 17.761 20.1145 17.7532 19.9665 17.74C18.8013 17.6355 18.071 16.8533 18.07 15.7035C18.069 14.166 18.069 12.6284 18.07 11.0909C18.07 10.253 17.9175 9.44299 17.6131 8.66128C16.2516 5.16093 12.3335 3.47496 8.8821 4.99199C6.35635 6.1023 5.03867 8.10515 4.951 10.8262C4.89719 12.4922 4.94402 14.1616 4.93904 15.829C4.93655 16.6995 4.34023 17.4564 3.48237 17.6707C3.24424 17.7303 2.99017 17.7278 2.74657 17.7693C2.24241 17.8553 1.87326 18.1233 1.71484 18.6086C1.5619 19.0764 1.69093 19.4929 2.04912 19.8327C2.3286 20.0978 2.67981 20.1647 3.05693 20.1647C5.87312 20.1623 8.68981 20.1633 11.506 20.1633ZM9.52824 21.7819C9.59947 22.6436 10.6028 23.4254 11.5723 23.3843C12.5193 23.3438 13.4753 22.5396 13.4683 21.7819H9.52824ZM12.6518 2.85877C12.6817 2.3793 12.4969 2.0092 12.0824 1.77337C11.6579 1.53217 11.224 1.5556 10.8255 1.84026C10.4728 2.0922 10.3193 2.43985 10.3617 2.85877H12.6518Z" fill="#061229"/>
</svg>
