<svg width="19" height="19" viewBox="0 0 19 19" fill="none" xmlns="http://www.w3.org/2000/svg">
<path d="M18.6137 17.4799L18.614 17.4802C18.6888 17.5544 18.7481 17.6426 18.7886 17.7398C18.8291 17.837 18.85 17.9413 18.85 18.0467C18.85 18.152 18.8291 18.2563 18.7886 18.3535C18.7481 18.4507 18.6888 18.539 18.614 18.6131L18.6131 18.614C18.539 18.6888 18.4507 18.7481 18.3535 18.7886C18.2563 18.8291 18.152 18.85 18.0467 18.85C17.9413 18.85 17.837 18.8291 17.7398 18.7886C17.6426 18.7481 17.5544 18.6888 17.4802 18.614L17.4799 18.6137L14.807 15.9313L14.7115 15.8355L14.6064 15.9206C12.8398 17.3506 10.5918 18.0482 8.32596 17.8695C6.06014 17.6909 3.94927 16.6496 2.42861 14.9604C0.907947 13.2712 0.0934449 11.0628 0.153056 8.79077C0.212666 6.51871 1.14185 4.35614 2.74899 2.74899C4.35614 1.14185 6.51871 0.212666 8.79077 0.153056C11.0628 0.0934449 13.2712 0.907947 14.9604 2.42861C16.6496 3.94927 17.6909 6.06014 17.8695 8.32596C18.0482 10.5918 17.3506 12.8398 15.9206 14.6064L15.8355 14.7115L15.9313 14.807L18.6137 17.4799ZM3.0066 5.00932C2.20899 6.20303 1.78327 7.60645 1.78327 9.04212C1.78327 10.9673 2.54804 12.8136 3.90933 14.1749C5.27063 15.5362 7.11695 16.301 9.04212 16.301C10.4778 16.301 11.8812 15.8752 13.0749 15.0776C14.2686 14.28 15.199 13.1463 15.7484 11.82C16.2978 10.4936 16.4416 9.03406 16.1615 7.62598C15.8814 6.21791 15.1901 4.9245 14.1749 3.90933C13.1597 2.89417 11.8663 2.20283 10.4582 1.92274C9.05017 1.64266 7.59066 1.78641 6.26427 2.33581C4.93789 2.88522 3.80422 3.8156 3.0066 5.00932Z" fill="#3D86AF" stroke="white" stroke-width="0.3"/>
</svg>
