<svg width="9" height="8" viewBox="0 0 9 8" fill="none" xmlns="http://www.w3.org/2000/svg">
<path id="Vector" d="M8.86578 0.213473C8.82231 0.272471 8.78753 0.340589 8.73418 0.388913C7.73234 1.29192 6.87673 2.32069 6.06578 3.38691C4.98609 4.80653 4.00638 6.29136 3.09031 7.81733C3.05256 7.88021 2.98459 7.92582 2.93064 7.97938H2.83204C2.78165 7.92679 2.72059 7.88079 2.68285 7.82044C1.99757 6.72666 1.23246 5.68644 0.47249 4.64293C0.336936 4.45682 0.198418 4.27264 0.0620735 4.08672C-0.027242 3.96504 -0.0211164 3.88489 0.086576 3.77971C0.261255 3.60892 0.43712 3.4395 0.612985 3.26988C0.740832 3.14665 0.807226 3.1416 0.957008 3.24427C1.56542 3.66113 2.17364 4.07838 2.78185 4.49544C2.80062 4.50824 2.81979 4.52047 2.84528 4.53716C2.97787 4.3755 3.10809 4.21442 3.24108 4.05528C4.34883 2.72862 5.5615 1.50637 6.95854 0.469064C7.14962 0.327199 7.34762 0.194066 7.54858 0.0661743C7.60786 0.0285247 7.68749 0.00678883 7.75863 0.0050422C8.03448 -0.00194432 8.31072 0.0069829 8.58637 0.000190448C8.72608 -0.00330281 8.82152 0.0407511 8.86598 0.174465V0.213279L8.86578 0.213473Z" fill="white"/>
</svg>
