<svg width="29" height="29" viewBox="0 0 29 29" fill="none" xmlns="http://www.w3.org/2000/svg">
<path d="M9.46496 28.34H8.76293C8.63448 27.9558 8.54267 27.8927 8.15733 27.8906C7.561 27.8873 6.96298 27.9049 6.36834 27.8726C4.17126 27.7532 2.35236 26.2533 1.82004 24.1181C1.72613 23.7419 1.67307 23.345 1.67222 22.9574C1.66254 17.5067 1.66043 12.056 1.66717 6.60573C1.66928 5.0503 2.29677 3.77234 3.4907 2.77728C4.20116 2.18496 5.02027 1.82511 5.94172 1.71035C6.14892 1.6847 6.35865 1.66621 6.56711 1.66621C12.0347 1.66411 17.5024 1.66453 22.9696 1.66621C24.3808 1.66621 25.5777 2.17992 26.5564 3.19052C27.4762 4.13975 27.9395 5.28152 27.9399 6.60194C27.9424 12.0527 27.9491 17.5034 27.9344 22.9541C27.9293 24.7596 27.1031 26.1486 25.6026 27.1302C24.7973 27.6569 23.8885 27.8869 22.9283 27.8877C18.6399 27.8919 14.3514 27.889 10.0634 27.8957C9.92779 27.8957 9.75976 27.9369 9.66374 28.0226C9.4039 28.2551 9.55888 28.6839 9.92653 28.7819C10.0196 28.8067 10.1211 28.8075 10.2184 28.8075C14.4782 28.8083 18.7384 28.8092 22.9982 28.8075C26.2477 28.8067 28.8032 26.2541 28.8083 22.9978C28.8129 20.1606 28.8062 17.3234 28.8062 14.4863C28.8062 11.908 28.8074 9.33024 28.8108 6.75202C28.8146 3.8644 26.8045 1.41818 23.9631 0.942305C23.1958 0.813668 22.3969 0.850241 21.6123 0.8494C17.5765 0.843935 13.5407 0.850241 9.50539 0.853184C8.53004 0.854025 7.55426 0.847719 6.57891 0.85949C3.81877 0.89228 1.51303 2.79326 0.963869 5.49213C0.896067 5.82634 0.858583 6.17273 0.857742 6.51366C0.849739 12.0203 0.837528 17.5273 0.856058 23.0339C0.862375 24.9005 1.67559 26.4063 3.13231 27.5632C4.21 28.4195 5.45278 28.8092 6.82401 28.81C7.30116 28.81 7.77831 28.8088 8.25546 28.8075C8.48371 28.8067 8.66564 28.7394 8.74482 28.4952C8.75871 28.4523 8.84168 28.4086 8.89558 28.4052C9.08341 28.3943 9.27208 28.401 9.46075 28.401C9.46202 28.3808 9.4637 28.3606 9.46496 28.3405V28.34Z" fill="#006197" stroke="#006197" stroke-width="0.186429"/>
<path d="M14.4163 9.24225C14.1383 9.27 13.8764 9.29648 13.614 9.32254C12.5902 9.42386 11.6132 9.70089 10.6673 10.0982C10.2786 10.2617 10.0335 10.1763 9.82126 9.80977C9.66713 9.54325 9.5252 9.26957 9.36938 9.00431C9.21145 8.73527 9.02742 8.67515 8.79916 8.80421C8.5907 8.92192 8.54227 9.13169 8.67577 9.3856C8.82274 9.66432 8.97056 9.94303 9.13144 10.2138C9.56647 10.9456 10.2534 11.1479 11.0417 10.8132C12.5254 10.1831 14.0689 9.93883 15.6806 10.0902C16.7018 10.186 17.6725 10.4454 18.6188 10.8267C19.4443 11.1592 20.1097 10.9221 20.5363 10.1478C21.2189 8.90931 21.8999 7.66959 22.5754 6.42693C23.005 5.63703 22.6971 4.78785 21.8759 4.42422C20.9073 3.99543 19.9189 3.62086 18.885 3.38923C18.2049 3.23663 17.5146 3.12439 16.8248 3.01845C15.7602 2.85492 14.6846 2.84652 13.6161 2.93438C12.8118 3.00038 12.0129 3.14877 11.2169 3.2896C10.1805 3.47247 9.18998 3.81634 8.22768 4.23463C7.89161 4.3805 7.54585 4.54487 7.27043 4.7786C6.81392 5.1662 6.71621 5.7539 6.98195 6.28821C7.25316 6.83302 7.55849 7.36103 7.85623 7.89197C7.9632 8.08283 8.1902 8.14715 8.36244 8.05677C8.57638 7.94452 8.65513 7.72298 8.53932 7.5069C8.29127 7.04406 8.04406 6.57995 7.77664 6.12804C7.56059 5.76315 7.63303 5.3415 8.09375 5.13887C9.10954 4.69243 10.1485 4.32375 11.2295 4.08371C11.8335 3.94961 12.4492 3.84745 13.0649 3.79112C13.817 3.7226 14.5755 3.68266 15.3302 3.69317C16.2807 3.70662 17.2211 3.8382 18.1539 4.04041C18.997 4.22328 19.8199 4.46079 20.6214 4.77482C20.9599 4.90766 21.2884 5.06573 21.6258 5.20235C21.9349 5.32763 22.0562 5.7106 21.8793 6.03051C21.1747 7.30512 20.4752 8.58267 19.7711 9.85727C19.6106 10.1482 19.3226 10.2503 19.0189 10.12C18.1531 9.74839 17.2556 9.48902 16.3236 9.35449C16.02 9.31077 15.7117 9.28891 15.4047 9.2763C15.2493 9.27 15.2021 9.22039 15.203 9.06527C15.2076 7.93738 15.2038 6.80948 15.203 5.68117C15.203 5.61811 15.2038 5.55505 15.1996 5.492C15.1819 5.22589 15.035 5.08506 14.7877 5.09515C14.5746 5.10356 14.4222 5.27718 14.4218 5.51596C14.4192 6.69304 14.418 7.87011 14.4163 9.04719C14.4163 9.10899 14.4163 9.17036 14.4163 9.24267V9.24225Z" fill="#006197" stroke="#006197" stroke-width="0.186429"/>
<path d="M7.93827 12.1709C6.1577 12.1747 4.62265 13.43 4.27226 15.1573C4.12318 15.8922 4.22847 16.5959 4.45251 17.3004C5.20551 19.6638 5.95345 22.0289 6.68749 24.3982C7.00503 25.4227 7.6401 26.1146 8.68369 26.3904C9.47079 26.5985 10.201 26.4161 10.8496 25.9431C11.7946 25.2533 12.1539 24.1472 11.8165 23.0198C11.4169 21.6838 11.1869 20.3217 11.2914 18.9278C11.3495 18.1509 11.4716 17.374 11.6249 16.6093C11.9214 15.1296 11.2029 13.4762 9.89025 12.7216C9.21516 12.3336 8.63441 12.1696 7.93827 12.1709ZM7.93153 12.9764C8.48154 12.9465 8.98396 13.1214 9.46026 13.3942C10.4558 13.9655 11.0437 15.1981 10.8445 16.326C10.6988 17.1504 10.5283 17.9684 10.4904 18.8105C10.4238 20.3049 10.5855 21.7658 11.032 23.1947C11.1461 23.5604 11.1836 23.9282 11.0669 24.3053C10.8226 25.0948 10.0911 25.6632 9.30823 25.6598C8.47775 25.6564 7.75844 25.1095 7.50829 24.3019C7.23623 23.4233 6.9566 22.5473 6.67949 21.6703C6.19223 20.1284 5.70413 18.5864 5.2173 17.0444C5.04589 16.5013 4.94524 15.9619 5.04632 15.3776C5.26952 14.0887 6.48071 12.9377 7.93153 12.9764Z" fill="#006197" stroke="#006197" stroke-width="0.186429"/>
<path d="M21.6945 12.1712C19.9105 12.1322 18.3119 13.4639 17.9766 15.259C17.8608 15.8778 17.9644 16.4798 18.0979 17.0822C18.3249 18.1058 18.3898 19.1446 18.3291 20.188C18.2719 21.1746 18.055 22.1327 17.7871 23.0849C17.3062 24.7933 18.517 26.2579 20.0065 26.4374C21.4152 26.6073 22.5616 25.6492 22.9044 24.4965C23.4523 22.654 24.0524 20.827 24.6306 18.9937C24.714 18.7297 24.6214 18.5027 24.3982 18.4299C24.1577 18.3517 23.9416 18.4833 23.8557 18.7562C23.2775 20.5937 22.6984 22.4312 22.1206 24.2687C21.8713 25.0615 21.3432 25.5416 20.5119 25.6345C19.3445 25.7648 18.3948 24.7723 18.5026 23.6915C18.5456 23.2597 18.6964 22.8381 18.8025 22.4131C19.1002 21.2171 19.2135 20.0005 19.1217 18.7751C19.0674 18.0478 18.9701 17.3163 18.8113 16.605C18.4298 14.8953 19.5568 13.2029 21.3095 12.9889C22.8412 12.8018 24.2099 13.775 24.5573 15.2922C24.6833 15.8412 24.6273 16.3885 24.4411 16.9229C24.4003 17.0393 24.3624 17.1671 24.3687 17.2873C24.3784 17.4731 24.5502 17.6228 24.7342 17.6329C24.9305 17.6434 25.0758 17.556 25.1436 17.3693C25.6936 15.8513 25.4569 14.4766 24.3552 13.2827C23.6991 12.5715 22.6909 12.1708 21.6945 12.1712Z" fill="#006197" stroke="#006197" stroke-width="0.186429"/>
</svg>
